<?xml version="1.0" encoding="UTF-8"?>
<svg version="1.1" xmlns="http://www.w3.org/2000/svg" width="1080" height="1080">
<path d="M0 0 C356.4 0 712.8 0 1080 0 C1080 356.4 1080 712.8 1080 1080 C723.6 1080 367.2 1080 0 1080 C0 723.6 0 367.2 0 0 Z " fill="#FEFEFE" transform="translate(0,0)"/>
<path d="M0 0 C0 0.66 0 1.32 0 2 C1.175625 2.2784375 1.175625 2.2784375 2.375 2.5625 C15.27758584 7.67904266 26.12226012 19.18077545 33 31 C33.51175781 31.81726563 34.02351562 32.63453125 34.55078125 33.4765625 C45.15894095 51.32354086 46.30317373 74.49656736 42.875 94.61328125 C37.43370187 115.67401998 24.55523537 132.87683471 6 144 C-14.1409188 155.27337897 -39.78458478 158.88149094 -62.1875 152.75 C-68.89236053 150.81935006 -75.52583856 148.60421325 -82 146 C-82 145.34 -82 144.68 -82 144 C-82.73476563 143.73703125 -83.46953125 143.4740625 -84.2265625 143.203125 C-88.73056123 141.24927766 -92.22293396 138.09032676 -96 135 C-96.98806641 134.21689453 -96.98806641 134.21689453 -97.99609375 133.41796875 C-101.81696602 130.30375243 -104.40149912 127.2442181 -107 123 C-107.78375 122.030625 -108.5675 121.06125 -109.375 120.0625 C-121.75047295 102.7215595 -123.71780457 77.5570175 -120.56054688 57.16113281 C-118.79092345 48.74749311 -115.84314466 40.68628932 -112 33 C-111.34 33 -110.68 33 -110 33 C-109.566875 31.3603125 -109.566875 31.3603125 -109.125 29.6875 C-108 26 -108 26 -106 23 C-105.34 23 -104.68 23 -104 23 C-103.67 22.01 -103.34 21.02 -103 20 C-102.34 20 -101.68 20 -101 20 C-100.73960937 19.40703125 -100.47921875 18.8140625 -100.2109375 18.203125 C-94.45862408 7.73762574 -79.55573933 0.53837592 -68.75 -2.96875 C-45.13226178 -9.46362801 -23.07283841 -7.76005605 0 0 Z " fill="#FDFDFC" transform="translate(856,468)"/>
<path d="M0 0 C0 0.66 0 1.32 0 2 C-1.20914063 2.4846875 -2.41828125 2.969375 -3.6640625 3.46875 C-26.83541414 12.89696199 -49.5780355 25.87692069 -64 47 C-64.88945312 48.27617187 -64.88945312 48.27617187 -65.796875 49.578125 C-73.16005142 60.59142307 -76.96078637 72.23232311 -80 85 C-80.17724609 85.72413086 -80.35449219 86.44826172 -80.53710938 87.19433594 C-81.14456295 90.8762223 -81.18218378 94.51702231 -81.203125 98.23828125 C-81.21167511 99.43592354 -81.21167511 99.43592354 -81.22039795 100.65776062 C-81.22982619 102.34970792 -81.23637327 104.04167341 -81.24023438 105.73364258 C-81.24982443 108.26613702 -81.2808184 110.7977779 -81.3125 113.33007812 C-81.38080687 123.94188546 -80.33032767 133.64058684 -78 144 C-77.59927732 145.9990261 -77.2023555 147.99882616 -76.8125 150 C-76.54271996 151.33354685 -76.27237185 152.6669801 -76 154 C-75.34 154 -74.68 154 -74 154 C-73.79246094 154.58265625 -73.58492187 155.1653125 -73.37109375 155.765625 C-67.94872639 170.19502098 -59.788079 180.2636159 -49 191 C-48.19175781 191.80824219 -47.38351562 192.61648438 -46.55078125 193.44921875 C-33.29056666 205.92509533 -15.19434776 213.57020597 2 219 C2 219.66 2 220.32 2 221 C-4.31870168 223.47859103 -9.90871044 224.55194972 -16.6875 224.5 C-18.04282837 224.49033203 -18.04282837 224.49033203 -19.42553711 224.48046875 C-47.30512179 223.74989434 -78.44050505 211.20403264 -98.625 191.8125 C-100.1111032 190.23402476 -101.56761058 188.62737437 -103 187 C-103.63736084 186.27997803 -103.63736084 186.27997803 -104.28759766 185.54541016 C-125.54792876 161.14843431 -133.95199901 130.97386547 -132 99 C-129.13235639 70.32356385 -115.40009132 43.22209033 -93.1953125 24.703125 C-66.61186792 4.07966978 -33.6833017 -7.66774348 0 0 Z " fill="#B98F6A" transform="translate(312,432)"/>
<path d="M0 0 C0 0.66 0 1.32 0 2 C1.175625 2.2784375 1.175625 2.2784375 2.375 2.5625 C15.27758584 7.67904266 26.12226012 19.18077545 33 31 C33.51175781 31.81726563 34.02351562 32.63453125 34.55078125 33.4765625 C45.15894095 51.32354086 46.30317373 74.49656736 42.875 94.61328125 C37.43370187 115.67401998 24.55523537 132.87683471 6 144 C-14.1409188 155.27337897 -39.78458478 158.88149094 -62.1875 152.75 C-68.89236053 150.81935006 -75.52583856 148.60421325 -82 146 C-82 145.34 -82 144.68 -82 144 C-82.73476563 143.73703125 -83.46953125 143.4740625 -84.2265625 143.203125 C-88.73056123 141.24927766 -92.22293396 138.09032676 -96 135 C-96.98806641 134.21689453 -96.98806641 134.21689453 -97.99609375 133.41796875 C-101.81696602 130.30375243 -104.40149912 127.2442181 -107 123 C-107.78375 122.030625 -108.5675 121.06125 -109.375 120.0625 C-121.75047295 102.7215595 -123.71780457 77.5570175 -120.56054688 57.16113281 C-118.79092345 48.74749311 -115.84314466 40.68628932 -112 33 C-111.34 33 -110.68 33 -110 33 C-109.566875 31.3603125 -109.566875 31.3603125 -109.125 29.6875 C-108 26 -108 26 -106 23 C-105.34 23 -104.68 23 -104 23 C-103.67 22.01 -103.34 21.02 -103 20 C-102.34 20 -101.68 20 -101 20 C-100.73960937 19.40703125 -100.47921875 18.8140625 -100.2109375 18.203125 C-94.45862408 7.73762574 -79.55573933 0.53837592 -68.75 -2.96875 C-45.13226178 -9.46362801 -23.07283841 -7.76005605 0 0 Z M-73.86328125 13.3203125 C-75.82189587 16.31064807 -77 18.37986099 -77 22 C-77.66 22 -78.32 22 -79 22 C-88.88274766 46.62691165 -91.86094047 70.97271575 -86 97 C-85.77521973 98.03664795 -85.77521973 98.03664795 -85.54589844 99.09423828 C-82.57206333 112.65328475 -78.09222261 124.60769528 -70 136 C-69.47792969 136.74378906 -68.95585938 137.48757813 -68.41796875 138.25390625 C-63.19740573 144.94791285 -55.94509406 148.35163531 -48 151 C-34.91032611 151.81145336 -24.08030755 151.66471936 -13.6875 142.75 C5.14871448 124.41885752 10.84180767 98.73704369 11.40673828 73.28173828 C11.59569002 50.05267168 8.24120342 25.6829542 -8.64453125 8.2734375 C-13.45385666 3.70753895 -17.61612004 -0.07279096 -24 -2 C-25.7015625 -2.5878125 -25.7015625 -2.5878125 -27.4375 -3.1875 C-45.6788802 -7.29623806 -62.11208363 -1.31325435 -73.86328125 13.3203125 Z " fill="#D8B38E" transform="translate(856,468)"/>
<path d="M0 0 C36.63 0 73.26 0 111 0 C111 8.91 111 17.82 111 27 C110.01 27 109.02 27 108 27 C107.87044922 26.1646875 107.87044922 26.1646875 107.73828125 25.3125 C106.50527394 18.61579974 104.51548397 12.71927071 98.96484375 8.42578125 C94.73438874 5.74623715 91.50624279 3.88915428 86.45849609 3.79467773 C85.50450928 3.77449585 84.55052246 3.75431396 83.56762695 3.73352051 C82.56304443 3.71704468 81.55846191 3.70056885 80.5234375 3.68359375 C79.60151611 3.66494263 78.67959473 3.6462915 77.72973633 3.6270752 C74.27825719 3.55865755 70.82661669 3.49858551 67.375 3.4375 C59.66125 3.293125 51.9475 3.14875 44 3 C44 29.73 44 56.46 44 84 C73.68526543 84.98921571 73.68526543 84.98921571 87 79 C89.16773578 76.56117848 89.16773578 76.56117848 90.125 73.75 C90.68574219 72.41195312 90.68574219 72.41195312 91.2578125 71.046875 C91.50273438 70.37140625 91.74765625 69.6959375 92 69 C92.99 69 93.98 69 95 69 C95 80.22 95 91.44 95 103 C93.68 103 92.36 103 91 103 C90.690625 101.906875 90.38125 100.81375 90.0625 99.6875 C89.41662103 97.44592006 88.7376883 95.2130649 88 93 C87.01 93 86.02 93 85 93 C85 92.34 85 91.68 85 91 C79.90245237 89.34060414 75.25036773 88.67331864 69.87890625 88.5859375 C69.2175769 88.56829346 68.55624756 88.55064941 67.87487793 88.5324707 C65.43765208 88.47007459 63.00004342 88.42342725 60.5625 88.375 C55.096875 88.25125 49.63125 88.1275 44 88 C44 107.14 44 126.28 44 146 C51.96125 145.87625 59.9225 145.7525 68.125 145.625 C70.62852051 145.59100098 73.13204102 145.55700195 75.71142578 145.52197266 C77.70606806 145.48675172 79.70069811 145.45082881 81.6953125 145.4140625 C82.72261475 145.40270264 83.74991699 145.39134277 84.80834961 145.37963867 C89.91564655 145.27657384 94.22111317 145.02978054 99 143 C99 142.34 99 141.68 99 141 C99.598125 140.443125 100.19625 139.88625 100.8125 139.3125 C105.60007044 134.25135411 106.71998921 127.64099713 108 121 C108.99 121 109.98 121 111 121 C111 130.57 111 140.14 111 150 C96.97036143 150.02256518 82.94073485 150.04092334 68.91108227 150.05181217 C62.3970135 150.05703746 55.88295776 150.06412873 49.36889648 150.07543945 C43.08602584 150.08628085 36.80316774 150.09227951 30.52028847 150.09487724 C28.11964025 150.09672922 25.71899274 150.10034551 23.31834984 150.10573006 C19.96376418 150.11295705 16.60923083 150.11399023 13.25463867 150.11352539 C11.75599777 150.1189183 11.75599777 150.1189183 10.2270813 150.12442017 C9.31422867 150.1230455 8.40137604 150.12167084 7.46086121 150.12025452 C6.27036557 150.12163721 6.27036557 150.12163721 5.05581951 150.12304783 C3 150 3 150 0 149 C0 148.34 0 147.68 0 147 C1.04800781 146.65388672 1.04800781 146.65388672 2.1171875 146.30078125 C3.02726562 145.97464844 3.93734375 145.64851562 4.875 145.3125 C5.77992188 144.99925781 6.68484375 144.68601562 7.6171875 144.36328125 C10.68832495 142.60618785 10.95013646 141.33019611 12 138 C12.30477521 135.36645847 12.30477521 135.36645847 12.27415466 132.57299805 C12.28412979 131.49633881 12.29410492 130.41967957 12.30438232 129.31039429 C12.30537933 127.5537999 12.30537933 127.5537999 12.30639648 125.76171875 C12.31472 124.52056305 12.32304352 123.27940735 12.33161926 122.00064087 C12.35156728 118.60394625 12.36235579 115.20749652 12.36744571 111.81076431 C12.37109375 109.68750192 12.37733597 107.56426296 12.3844471 105.44100952 C12.40891966 98.03064949 12.42198973 90.62035931 12.42553711 83.20996094 C12.42917562 76.30640649 12.45909864 69.40329573 12.50094169 62.49987698 C12.53563553 56.56767219 12.55108535 50.63561462 12.55178314 44.70330906 C12.55257598 41.16232082 12.56131717 37.62178534 12.58978081 34.0809021 C12.62080801 30.13318675 12.61190611 26.18611042 12.59936523 22.23828125 C12.62161667 20.48168686 12.62161667 20.48168686 12.64431763 18.68960571 C12.76718787 12.17217684 12.76718787 12.17217684 9.58876038 6.79296875 C7.35735106 5.24750042 5.80997114 4.25313103 3.1875 3.6875 C2.135625 3.460625 1.08375 3.23375 0 3 C0 2.01 0 1.02 0 0 Z " fill="#DFBC97" transform="translate(501,467)"/>
<path d="M0 0 C18.81 0 37.62 0 57 0 C57 0.99 57 1.98 57 3 C55.9275 3.28875 54.855 3.5775 53.75 3.875 C49.68670746 5.05629619 49.68670746 5.05629619 46 7 C44.9658734 10.10237979 44.86277399 12.2700315 44.84178162 15.52384949 C44.8319928 16.67229843 44.82220398 17.82074738 44.81211853 19.0039978 C44.80636307 20.26491241 44.8006076 21.52582703 44.79467773 22.82495117 C44.7850982 24.16528118 44.77508807 25.50560818 44.76467896 26.84593201 C44.73763198 30.48611484 44.7166213 34.12631063 44.69667697 37.76653838 C44.67481615 41.57023849 44.64742793 45.37389865 44.62062073 49.17756653 C44.57069515 56.38105252 44.52575582 63.58456068 44.48259836 70.78809005 C44.43322484 78.98875544 44.37830714 87.18938075 44.32291877 95.39000738 C44.20910079 112.25996787 44.10226135 129.12996557 44 146 C51.11703364 145.93278742 58.23352712 145.84289755 65.35009766 145.73754883 C67.76897756 145.70438024 70.18793335 145.67632342 72.60693359 145.65356445 C76.0924501 145.61987065 79.57727615 145.5675456 83.0625 145.51171875 C84.13677246 145.50532883 85.21104492 145.4989389 86.31787109 145.49235535 C93.14779764 145.35987251 99.98801618 145.10501807 105.0234375 139.9140625 C105.46945312 139.15867187 105.91546875 138.40328125 106.375 137.625 C106.83648438 136.87476563 107.29796875 136.12453125 107.7734375 135.3515625 C110.07339018 130.94209907 111.3121588 126.92952863 112 122 C112.99 122 113.98 122 115 122 C115.02886338 126.47915328 115.04675187 130.95828291 115.0625 135.4375 C115.07087891 136.71689453 115.07925781 137.99628906 115.08789062 139.31445312 C115.09111328 140.52939453 115.09433594 141.74433594 115.09765625 142.99609375 C115.10289307 144.12200928 115.10812988 145.2479248 115.11352539 146.40795898 C115 149 115 149 114 150 C112.5325104 150.09565123 111.06043116 150.12188309 109.58982849 150.12025452 C108.63765442 150.12162918 107.68548035 150.12300385 106.70445251 150.12442017 C105.65141434 150.12082489 104.59837616 150.11722961 103.51342773 150.11352539 C102.41112823 150.11367142 101.30882874 150.11381744 100.17312622 150.1139679 C96.50992908 150.11326821 92.84678206 150.10547324 89.18359375 150.09765625 C86.65153532 150.09579227 84.11947652 150.09436827 81.5874176 150.09336853 C75.59151751 150.08993346 69.59563911 150.08204269 63.59974772 150.07201904 C56.77518942 150.06085677 49.95063028 150.05534717 43.12606514 150.05032361 C29.08403336 150.03986004 15.04201767 150.0222613 1 150 C0.67 149.01 0.34 148.02 0 147 C0.83144531 146.72736328 0.83144531 146.72736328 1.6796875 146.44921875 C2.76636719 146.07216797 2.76636719 146.07216797 3.875 145.6875 C4.59429688 145.44386719 5.31359375 145.20023438 6.0546875 144.94921875 C8.33994905 144.03664453 8.33994905 144.03664453 10 141 C10.66 141 11.32 141 12 141 C12.04672582 124.39723553 12.08199169 107.79449239 12.10362434 91.19167805 C12.11393584 83.48266209 12.12799376 75.773687 12.15087891 68.06469727 C12.17081665 61.34535148 12.18371736 54.62603528 12.18817699 47.90666074 C12.19078372 44.34897936 12.19690803 40.79138265 12.21146011 37.23372841 C12.22757536 33.26167848 12.22797943 29.28971129 12.22705078 25.31762695 C12.23424133 24.1387088 12.24143188 22.95979065 12.24884033 21.74514771 C12.246091 20.66126266 12.24334167 19.57737762 12.24050903 18.46064758 C12.24327441 17.05168701 12.24327441 17.05168701 12.24609566 15.61426258 C11.97185055 12.70096971 11.32087259 10.60774751 10 8 C6.82648821 5.51638207 4.02511753 3.61924885 0 3 C0 2.01 0 1.02 0 0 Z " fill="#E5C39F" transform="translate(620,467)"/>
<path d="M0 0 C18.81 0 37.62 0 57 0 C57 0.99 57 1.98 57 3 C55.046875 3.35807292 53.09375 3.71614583 51.140625 4.07421875 C47.83085837 5.50563242 46.86198782 6.85310149 45 10 C44.39535502 14.07536424 44.46433206 18.12489712 44.49829102 22.23828125 C44.49288803 23.47943695 44.48748505 24.72059265 44.48191833 25.99935913 C44.47156337 29.39633862 44.47912216 32.79234205 44.49562955 36.18923569 C44.50950066 39.74766162 44.50301763 43.30605872 44.49949646 46.86450195 C44.49679595 52.83976396 44.51025604 58.8148249 44.53344727 64.79003906 C44.56005615 71.69350119 44.56180359 78.59662719 44.5500589 85.50012302 C44.53927125 92.14712884 44.54547589 98.79401333 44.55961418 105.44100952 C44.56536547 108.26706823 44.56529809 111.09303791 44.56054878 113.9190979 C44.55488058 117.86676707 44.57411802 121.81410133 44.59594727 125.76171875 C44.58919479 127.51831314 44.58919479 127.51831314 44.58230591 129.31039429 C44.59221054 130.38705353 44.60211517 131.46371277 44.61231995 132.57299805 C44.61596479 133.97221748 44.61596479 133.97221748 44.61968327 135.39970398 C45.07906765 138.54060021 46.15520178 140.43775638 48 143 C48.66 143.33 49.32 143.66 50 144 C50 144.66 50 145.32 50 146 C51.98 146.33 53.96 146.66 56 147 C56 147.66 56 148.32 56 149 C37.52 149 19.04 149 0 149 C0 148.34 0 147.68 0 147 C1.6232687 146.3291288 3.24867578 145.66342971 4.875 145 C5.77992188 144.62875 6.68484375 144.2575 7.6171875 143.875 C10 143 10 143 12 143 C12.07011089 126.02336746 12.12299833 109.04678017 12.15543652 92.07003593 C12.1708991 84.18726636 12.19197694 76.3045868 12.22631836 68.421875 C12.25623941 61.55053208 12.27557943 54.67925435 12.28226548 47.8078481 C12.28617318 44.17016537 12.29534397 40.53266914 12.31719017 36.89504623 C12.34139215 32.83212799 12.34196826 28.76953308 12.34057617 24.70654297 C12.351362 23.50316788 12.36214783 22.29979279 12.3732605 21.05995178 C12.38791772 13.09506943 12.38791772 13.09506943 9 6 C6.78819221 4.66523001 6.78819221 4.66523001 4.3125 4.125 C3.50425781 3.90070313 2.69601562 3.67640625 1.86328125 3.4453125 C1.24839844 3.29835938 0.63351562 3.15140625 0 3 C0 2.01 0 1.02 0 0 Z " fill="#D5B08A" transform="translate(434,467)"/>
<path d="M0 0 C1.67542976 0.28604898 3.34385343 0.61781233 5 1 C5 1.66 5 2.32 5 3 C5.99 3.33 6.98 3.66 8 4 C8.495 4.99 8.495 4.99 9 6 C10.299375 5.83177734 10.299375 5.83177734 11.625 5.66015625 C16.11539224 6.1123138 18.06756914 8.27515822 21 11.4375 C21.5254541 11.98591553 22.0509082 12.53433105 22.59228516 13.09936523 C26.64155206 17.41216783 30.04604922 21.8661759 33 27 C33.76570312 28.22396484 33.76570312 28.22396484 34.546875 29.47265625 C45.16273748 47.31466274 46.30280463 70.49873323 42.875 90.61328125 C37.43370187 111.67401998 24.55523537 128.87683471 6 140 C-11.01825657 149.52554636 -26.83347114 150.45695967 -46 150 C-46 149.34 -46 148.68 -46 148 C-45.14019531 147.98582031 -44.28039062 147.97164062 -43.39453125 147.95703125 C-30.55279771 147.43888061 -20.46166784 144.51541984 -11.14453125 135.37890625 C8.67740256 113.39064088 11.27397011 82.5798402 10.21582031 54.3828125 C9.48414552 42.91438957 6.4814245 32.33886799 2.109375 21.74609375 C-1.55691318 12.67073955 -1.55691318 12.67073955 0 8 C-0.66 7.01 -1.32 6.02 -2 5 C-1.34 5 -0.68 5 0 5 C-0.2784375 4.0409375 -0.2784375 4.0409375 -0.5625 3.0625 C-0.706875 2.381875 -0.85125 1.70125 -1 1 C-0.67 0.67 -0.34 0.34 0 0 Z " fill="#BE9772" transform="translate(856,472)"/>
<path d="M0 0 C0.33 0 0.66 0 1 0 C1 33.33 1 66.66 1 101 C-1.8290723 98.1709277 -2.37611108 97.61855575 -3 94 C-3.66 94 -4.32 94 -5 94 C-5.0825 93.38125 -5.165 92.7625 -5.25 92.125 C-5.81258459 89.81562433 -5.81258459 89.81562433 -8.0625 88.75 C-9.0215625 88.37875 -9.0215625 88.37875 -10 88 C-10 87.34 -10 86.68 -10 86 C-10.804375 85.5978125 -10.804375 85.5978125 -11.625 85.1875 C-13.3919811 84.30400945 -15.1392378 83.38084902 -16.875 82.4375 C-29.20173226 76.76720316 -42.13428948 80.78881839 -54.25 84.875 C-56.36836575 85.57158846 -58.4882972 86.26318139 -60.60882568 86.95315552 C-62.52348934 87.57890526 -64.43425042 88.21656009 -66.34472656 88.85498047 C-73.01548341 90.94460441 -78.71487877 92.25229936 -85.78125 92.1953125 C-86.48020386 92.1924826 -87.17915771 92.18965271 -87.89929199 92.18673706 C-90.09971316 92.1756727 -92.29970493 92.15059606 -94.5 92.125 C-96.00520239 92.11495235 -97.51041126 92.10582965 -99.015625 92.09765625 C-102.67721938 92.07577893 -106.33856768 92.04134696 -110 92 C-107.53814775 89.53814775 -106.5293817 89.65505391 -103.125 89.25 C-90.5006131 87.3031066 -77.82341956 83.55507005 -66.60546875 77.39453125 C-64 76 -64 76 -60.7421875 74.71875 C-56.01596223 72.7311571 -52.04939178 69.70883166 -47.9375 66.6875 C-46.77250977 65.8531543 -46.77250977 65.8531543 -45.58398438 65.00195312 C-41.99365666 62.39052933 -38.65828143 59.77518715 -35.56640625 56.58203125 C-34.71949219 55.72996094 -33.87257813 54.87789062 -33 54 C-32.34 54 -31.68 54 -31 54 C-30.73316406 53.42121094 -30.46632813 52.84242188 -30.19140625 52.24609375 C-28.96568978 49.93531679 -27.58481941 48.09146788 -25.9375 46.0625 C-14.87191118 31.93329775 -6.05051388 16.96095666 0 0 Z " fill="#D7B28D" transform="translate(414,578)"/>
<path d="M0 0 C0.66 0 1.32 0 2 0 C2 33 2 66 2 100 C-0.95953389 97.04046611 -1.46979031 96.14401747 -2.625 92.375 C-13.11908229 62.17447309 -37.25635351 36.90866503 -65.75 22.9375 C-79.33103148 16.53940888 -94.27548309 12.70874595 -109 10 C-109 9.67 -109 9.34 -109 9 C-82.93913675 8.43009215 -82.93913675 8.43009215 -71.3125 10.3125 C-70.57926514 10.43020752 -69.84603027 10.54791504 -69.09057617 10.66918945 C-64.83372894 11.44185839 -60.95547725 12.67568773 -56.93530273 14.26196289 C-53.96978503 15.39287749 -50.93240471 16.2177808 -47.875 17.0625 C-44.51684309 17.99365932 -41.21160248 18.92435077 -37.9296875 20.09765625 C-30.33225968 22.43766402 -22.48228766 21.61754263 -15.31640625 18.31640625 C-7.42791886 13.83340414 -3.47050247 8.2924987 0 0 Z " fill="#BD9571" transform="translate(413,406)"/>
<path d="M0 0 C0.33 0 0.66 0 1 0 C1 43.89 1 87.78 1 133 C34.614169 137.09308868 34.614169 137.09308868 62.0234375 126.9140625 C62.46945312 126.15867187 62.91546875 125.40328125 63.375 124.625 C63.83648438 123.87476563 64.29796875 123.12453125 64.7734375 122.3515625 C67.07339018 117.94209907 68.3121588 113.92952863 69 109 C69.99 109 70.98 109 72 109 C72.02886338 113.47915328 72.04675187 117.95828291 72.0625 122.4375 C72.07087891 123.71689453 72.07925781 124.99628906 72.08789062 126.31445312 C72.09111328 127.52939453 72.09433594 128.74433594 72.09765625 129.99609375 C72.10289307 131.12200928 72.10812988 132.2479248 72.11352539 133.40795898 C72 136 72 136 71 137 C69.5325104 137.09565123 68.06043116 137.12188309 66.58982849 137.12025452 C65.63765442 137.12162918 64.68548035 137.12300385 63.70445251 137.12442017 C62.65141434 137.12082489 61.59837616 137.11722961 60.51342773 137.11352539 C59.41112823 137.11367142 58.30882874 137.11381744 57.17312622 137.1139679 C53.50992908 137.11326821 49.84678206 137.10547324 46.18359375 137.09765625 C43.65153532 137.09579227 41.11947652 137.09436827 38.5874176 137.09336853 C32.59151751 137.08993346 26.59563911 137.08204269 20.59974772 137.07201904 C13.77518942 137.06085677 6.95063028 137.05534717 0.12606514 137.05032361 C-13.91596664 137.03986004 -27.95798233 137.0222613 -42 137 C-42.33 136.01 -42.66 135.02 -43 134 C-39.04 133.01 -39.04 133.01 -35 132 C-35 132.66 -35 133.32 -35 134 C-18.17 134.495 -18.17 134.495 -1 135 C-1.33 133.02 -1.66 131.04 -2 129 C-1.67 128.34 -1.34 127.68 -1 127 C-0.89520818 125.3151249 -0.8534351 123.62617036 -0.84178162 121.93807983 C-0.8319928 120.86673294 -0.82220398 119.79538605 -0.81211853 118.6915741 C-0.80636307 117.51122086 -0.8006076 116.33086761 -0.79467773 115.11474609 C-0.78477814 113.87575058 -0.77487854 112.63675507 -0.76467896 111.36021423 C-0.7384556 107.95755372 -0.71660829 104.55491711 -0.69667697 101.15221739 C-0.67483371 97.59808526 -0.64743692 94.04399614 -0.62062073 90.48989868 C-0.57067135 83.75741341 -0.52574087 77.0249043 -0.48259836 70.29237235 C-0.43324515 62.62859823 -0.37831993 54.96486724 -0.32291877 47.30113482 C-0.20906427 31.53412973 -0.1022328 15.76708499 0 0 Z " fill="#E2CCB6" transform="translate(663,480)"/>
<path d="M0 0 C2.69019841 2.94240451 3.16490506 5.26027143 3.25 9.125 C3 13 3 13 2 16 C1.34 16 0.68 16 0 16 C-0.28875 16.639375 -0.5775 17.27875 -0.875 17.9375 C-2 20 -2 20 -4 21 C-2.35 21.33 -0.7 21.66 1 22 C1 23.65 1 25.3 1 27 C-1.10388569 27.05402274 -3.20816714 27.09280256 -5.3125 27.125 C-6.48425781 27.14820313 -7.65601563 27.17140625 -8.86328125 27.1953125 C-12 27 -12 27 -15 25 C-15 24.01 -15 23.02 -15 22 C-15.886875 21.9175 -16.77375 21.835 -17.6875 21.75 C-21.46545717 20.89461347 -23.24213977 19.67906423 -26 17 C-27.60816725 12.17549824 -27.80474053 7.8106662 -25.75 3.1875 C-19.30877106 -4.86403618 -8.60373772 -4.90511943 0 0 Z " fill="#B39474" transform="translate(666,638)"/>
<path d="M0 0 C2.75028799 1.71054497 3.85469371 3.13605947 4.921875 6.1953125 C5.31905712 10.64375227 5.2184698 14.29110134 2.921875 18.1953125 C0.796875 19.0078125 0.796875 19.0078125 -1.078125 19.1953125 C-1.078125 19.8553125 -1.078125 20.5153125 -1.078125 21.1953125 C-6.663417 23.2155245 -11.26635733 23.66678009 -17.078125 22.1953125 C-20.88614426 20.15026512 -24.074291 18.09165638 -26.078125 14.1953125 C-26.4845255 9.72490705 -26.39655365 6.09448795 -24.078125 2.1953125 C-16.12943749 -3.89304389 -8.82716669 -4.35270634 0 0 Z " fill="#B69273" transform="translate(537.078125,637.8046875)"/>
<path d="M0 0 C0 0.66 0 1.32 0 2 C0.825 2.226875 1.65 2.45375 2.5 2.6875 C6.73136618 4.27426232 10.25171013 6.50748237 14 9 C13.34 9.66 12.68 10.32 12 11 C10.68 11 9.36 11 8 11 C7.505 9.515 7.505 9.515 7 8 C6.01 7.505 6.01 7.505 5 7 C5 6.34 5 5.68 5 5 C3.35 5 1.7 5 0 5 C-0.6878236 7.35367713 -0.6878236 7.35367713 -1 10 C-0.01 11.485 -0.01 11.485 1 13 C0.505 14.485 0.505 14.485 0 16 C0.39397335 18.63804589 0.39397335 18.63804589 1 21 C-1.27212281 18.89017168 -3.01396237 16.97690839 -4.625 14.3125 C-9.12349178 7.34250483 -16.09712091 1.48794342 -24 -1 C-25.134375 -1.391875 -26.26875 -1.78375 -27.4375 -2.1875 C-38.6701952 -4.7175828 -50.03282531 -3.95671387 -60 2 C-62.8693957 4.15650236 -65.48874356 6.43704122 -68 9 C-69.05609899 5.83170302 -69.13055309 5.01480825 -68 2 C-67.02492627 0.97568012 -66.02723244 -0.02799511 -65 -1 C-70.60829213 0.64509903 -75.40482265 2.32385812 -80 6 C-80.33 6.99 -80.66 7.98 -81 9 C-82.9812585 9.72045764 -84.98504093 10.38001259 -87 11 C-90.5093776 12.70969678 -92.84661187 14.82260951 -95.5 17.625 C-98.18875778 20.41966071 -99.95803425 21.87751619 -104 22 C-103.67 21.34 -103.34 20.68 -103 20 C-102.34 20 -101.68 20 -101 20 C-100.73960937 19.40703125 -100.47921875 18.8140625 -100.2109375 18.203125 C-94.45862408 7.73762574 -79.55573933 0.53837592 -68.75 -2.96875 C-45.13226178 -9.46362801 -23.07283841 -7.76005605 0 0 Z " fill="#D9BDA2" transform="translate(856,468)"/>
<path d="M0 0 C3.196875 -0.0825 6.39375 -0.165 9.6875 -0.25 C10.68612061 -0.28641602 11.68474121 -0.32283203 12.71362305 -0.36035156 C16.97463834 -0.41358742 19.38652184 -0.36547635 23.12109375 1.859375 C25 4 25 4 25.375 6.5 C25.04192731 8.72048459 24.54369261 10.82522956 24 13 C24.33 13.33 24.66 13.66 25 14 C25.46580407 19.35674677 25.46580407 19.35674677 23.6875 21.8125 C20.70187871 23.91349276 18.08042375 24.12134513 14.55078125 24.09765625 C13.78677002 24.09515869 13.02275879 24.09266113 12.2355957 24.09008789 C11.27097412 24.08098389 10.30635254 24.07187988 9.3125 24.0625 C4.7028125 24.0315625 4.7028125 24.0315625 0 24 C0 16.08 0 8.16 0 0 Z " fill="#B99779" transform="translate(477,636)"/>
<path d="M0 0 C0.99 0 1.98 0 3 0 C3 9.57 3 19.14 3 29 C-11.02963857 29.02256518 -25.05926515 29.04092334 -39.08891773 29.05181217 C-45.6029865 29.05703746 -52.11704224 29.06412873 -58.63110352 29.07543945 C-64.91397416 29.08628085 -71.19683226 29.09227951 -77.47971153 29.09487724 C-79.88035975 29.09672922 -82.28100726 29.10034551 -84.68165016 29.10573006 C-88.03623582 29.11295705 -91.39076917 29.11399023 -94.74536133 29.11352539 C-95.74445526 29.11712067 -96.74354919 29.12071594 -97.7729187 29.12442017 C-98.68577133 29.1230455 -99.59862396 29.12167084 -100.53913879 29.12025452 C-101.72963443 29.12163721 -101.72963443 29.12163721 -102.94418049 29.12304783 C-105 29 -105 29 -108 28 C-108 27.34 -108 26.68 -108 26 C-105.03 25.01 -102.06 24.02 -99 23 C-99.33 23.99 -99.66 24.98 -100 26 C-95.03377651 26.02465098 -90.06758834 26.04283649 -85.10131836 26.05493164 C-83.41055684 26.0599719 -81.71979971 26.06680405 -80.02905273 26.07543945 C-77.60399293 26.08751857 -75.17899056 26.09323123 -72.75390625 26.09765625 C-71.99348526 26.10281754 -71.23306427 26.10797882 -70.44960022 26.11329651 C-68.6326743 26.11349238 -66.81586873 26.06197277 -65 26 C-64.505 25.505 -64.505 25.505 -64 25 C-62.49761233 24.88790021 -60.99011229 24.84327086 -59.48364258 24.82641602 C-58.04127983 24.80618126 -58.04127983 24.80618126 -56.56977844 24.78553772 C-55.52194687 24.77509933 -54.4741153 24.76466095 -53.39453125 24.75390625 C-51.19205351 24.7209547 -48.98957965 24.68774328 -46.78710938 24.65429688 C-43.30235594 24.60695035 -39.81761674 24.5625578 -36.33276367 24.52319336 C-32.97817962 24.48339119 -29.62393007 24.43184939 -26.26953125 24.37890625 C-25.23182083 24.3704921 -24.19411041 24.36207794 -23.12495422 24.35340881 C-18.03580272 24.26675115 -13.76216381 24.0252997 -9 22 C-9 21.34 -9 20.68 -9 20 C-8.401875 19.443125 -7.80375 18.88625 -7.1875 18.3125 C-2.39992956 13.25135411 -1.28001079 6.64099713 0 0 Z " fill="#EAD9C5" transform="translate(609,588)"/>
<path d="M0 0 C36.63 0 73.26 0 111 0 C111 8.91 111 17.82 111 27 C110.01 27 109.02 27 108 27 C107.87044922 26.1646875 107.87044922 26.1646875 107.73828125 25.3125 C106.50527394 18.61579974 104.51548397 12.71927071 98.96484375 8.42578125 C94.73438874 5.74623715 91.50624279 3.88915428 86.45849609 3.79467773 C85.50450928 3.77449585 84.55052246 3.75431396 83.56762695 3.73352051 C82.56304443 3.71704468 81.55846191 3.70056885 80.5234375 3.68359375 C79.60151611 3.66494263 78.67959473 3.6462915 77.72973633 3.6270752 C74.27825719 3.55865755 70.82661669 3.49858551 67.375 3.4375 C59.66125 3.293125 51.9475 3.14875 44 3 C44 29.73 44 56.46 44 84 C43.67 84 43.34 84 43 84 C43 56.61 43 29.22 43 1 C21.13407367 -0.08944471 21.13407367 -0.08944471 0 3 C0 2.01 0 1.02 0 0 Z " fill="#E0C7A9" transform="translate(501,467)"/>
<path d="M0 0 C0.33 0 0.66 0 1 0 C1.10957031 1.25554687 1.21914063 2.51109375 1.33203125 3.8046875 C1.97906956 16.84941931 1.97906956 16.84941931 6 29 C8.66782307 30.6955538 8.66782307 30.6955538 12 31 C13.46128067 31.36334546 14.91964005 31.73862125 16.375 32.125 C17.57125 32.41375 18.7675 32.7025 20 33 C20 33.66 20 34.32 20 35 C19.11248047 35.14695312 19.11248047 35.14695312 18.20703125 35.296875 C13.21165102 36.24216718 9.46155409 37.02939384 6 41 C1.8586827 48.70393524 1.83353407 58.45872737 1 67 C0.67 67 0.34 67 0 67 C-0.07516846 66.42556152 -0.15033691 65.85112305 -0.2277832 65.25927734 C-0.57828672 62.6295737 -0.94524664 60.00241461 -1.3125 57.375 C-1.43044922 56.47136719 -1.54839844 55.56773437 -1.66992188 54.63671875 C-2.55776933 48.39902124 -3.65095259 42.02136022 -9 38 C-11.49018012 37.00011074 -11.49018012 37.00011074 -14.1875 36.3125 C-15.53908203 35.93544922 -15.53908203 35.93544922 -16.91796875 35.55078125 C-17.60503906 35.36902344 -18.29210937 35.18726563 -19 35 C-19 34.34 -19 33.68 -19 33 C-18.26394531 32.8040625 -17.52789063 32.608125 -16.76953125 32.40625 C-15.79371094 32.1071875 -14.81789063 31.808125 -13.8125 31.5 C-12.84957031 31.2215625 -11.88664063 30.943125 -10.89453125 30.65625 C-6.73207092 28.27449132 -4.87710671 25.36873442 -3 21 C-2.06682121 17.35826045 -1.59175623 13.7335766 -1.1875 10 C-1.06697266 9.03449219 -0.94644531 8.06898438 -0.82226562 7.07421875 C-0.53061398 4.71767345 -0.25698323 2.36053338 0 0 Z " fill="#B7906E" transform="translate(817,509)"/>
<path d="M0 0 C0.99 0 1.98 0 3 0 C3 11.22 3 22.44 3 34 C1.68 34 0.36 34 -1 34 C-1.309375 32.906875 -1.61875 31.81375 -1.9375 30.6875 C-2.58337897 28.44592006 -3.2623117 26.2130649 -4 24 C-4.99 24 -5.98 24 -7 24 C-7 23.34 -7 22.68 -7 22 C-12.09754763 20.34060414 -16.74963227 19.67331864 -22.12109375 19.5859375 C-22.7824231 19.56829346 -23.44375244 19.55064941 -24.12512207 19.5324707 C-26.56234792 19.47007459 -28.99995658 19.42342725 -31.4375 19.375 C-36.903125 19.25125 -42.36875 19.1275 -48 19 C-48 38.14 -48 57.28 -48 77 C-48.33 77 -48.66 77 -49 77 C-49.02312764 69.06386213 -49.04091723 61.12773824 -49.05181217 53.19157505 C-49.05704008 49.50685502 -49.06413605 45.82215797 -49.07543945 42.13745117 C-49.08627162 38.58429169 -49.09227753 35.03115437 -49.09487724 31.47797966 C-49.0967309 30.11954334 -49.10035038 28.76110829 -49.10573006 27.40268135 C-49.11294475 25.50617777 -49.11340809 23.60965207 -49.11352539 21.71313477 C-49.115746 20.63169693 -49.11796661 19.55025909 -49.12025452 18.43605042 C-49 16 -49 16 -48 15 C-45.68026528 14.88973526 -43.35742574 14.84401608 -41.03515625 14.82421875 C-39.58006423 14.8009846 -38.12498612 14.77686591 -36.66992188 14.75195312 C-34.37938636 14.71711145 -32.08934982 14.68765925 -29.79858398 14.67407227 C-16.83634187 14.75010379 -16.83634187 14.75010379 -5 10 C-2.83226422 7.56117848 -2.83226422 7.56117848 -1.875 4.75 C-1.50117187 3.85796875 -1.12734375 2.9659375 -0.7421875 2.046875 C-0.49726562 1.37140625 -0.25234375 0.6959375 0 0 Z " fill="#E5CCB0" transform="translate(593,536)"/>
<path d="M0 0 C2.31 0 4.62 0 7 0 C7.33 6.6 7.66 13.2 8 20 C11.3 20 14.6 20 18 20 C18.33 13.4 18.66 6.8 19 0 C21.31 0 23.62 0 26 0 C26.05404449 2.75026417 26.09369306 5.49946203 26.125 8.25 C26.15013672 9.41595703 26.15013672 9.41595703 26.17578125 10.60546875 C26.23967089 18.08055679 26.23967089 18.08055679 24 21 C19.40507894 24.42242396 14.70097836 25.73901571 9 25 C5.61438117 23.76294696 3.60464463 22.75118203 1.33984375 19.9375 C-0.48660628 15.93315475 -0.32937519 12.52742559 -0.1875 8.1875 C-0.17396484 7.39923828 -0.16042969 6.61097656 -0.14648438 5.79882812 C-0.11133456 3.86558831 -0.05753361 1.93270318 0 0 Z " fill="#B79679" transform="translate(552,636)"/>
<path d="M0 0 C2.31 0 4.62 0 7 0 C7.04898438 1.27617188 7.09796875 2.55234375 7.1484375 3.8671875 C7.22346191 5.53648072 7.29900988 7.20575046 7.375 8.875 C7.4059375 9.71675781 7.436875 10.55851563 7.46875 11.42578125 C7.50742187 12.23144531 7.54609375 13.03710938 7.5859375 13.8671875 C7.6173584 14.61081543 7.6487793 15.35444336 7.68115234 16.12060547 C7.85419551 18.24010974 7.85419551 18.24010974 10 20 C14.34194936 19.90304884 14.34194936 19.90304884 18 18 C18.15582303 16.65984779 18.25044142 15.31241097 18.31640625 13.96484375 C18.35830078 13.15595703 18.40019531 12.34707031 18.44335938 11.51367188 C18.48267578 10.66353516 18.52199219 9.81339844 18.5625 8.9375 C18.60568359 8.08349609 18.64886719 7.22949219 18.69335938 6.34960938 C18.79976702 4.23327963 18.90041731 2.11666187 19 0 C21.31 0 23.62 0 26 0 C26.02696009 2.7708983 26.04681952 5.5415345 26.0625 8.3125 C26.07087891 9.09818359 26.07925781 9.88386719 26.08789062 10.69335938 C26.09272461 11.8293457 26.09272461 11.8293457 26.09765625 12.98828125 C26.10551147 14.03302612 26.10551147 14.03302612 26.11352539 15.09887695 C25.91995272 18.34049069 25.14801337 19.84980996 22.875 22.15625 C19.33644132 24.42554306 17.17629965 24.53600258 13 24.5 C11.80375 24.5103125 10.6075 24.520625 9.375 24.53125 C5.44995472 23.9134188 3.80157663 22.76037697 1 20 C-0.1482685 17.703463 -0.11561175 16.41686833 -0.09765625 13.8671875 C-0.09443359 13.06152344 -0.09121094 12.25585938 -0.08789062 11.42578125 C-0.07951172 10.58402344 -0.07113281 9.74226562 -0.0625 8.875 C-0.05798828 8.02550781 -0.05347656 7.17601562 -0.04882812 6.30078125 C-0.03702874 4.20049091 -0.01909306 2.1002367 0 0 Z " fill="#B9997C" transform="translate(678,636)"/>
<path d="M0 0 C5.66445905 1.80605941 11.18538375 3.84010945 16.69140625 6.08203125 C19.42611276 7.1694357 22.19401266 8.11389874 25 9 C25 9.66 25 10.32 25 11 C18.67931131 13.47937046 13.09250968 14.54685293 6.3125 14.5 C5.42344971 14.49935547 4.53439941 14.49871094 3.6184082 14.49804688 C-6.88500522 14.27076771 -16.907362 11.74709128 -27 9 C-27 8.67 -27 8.34 -27 8 C-21.43534823 7.77741393 -17.30870693 8.23043102 -12 10 C-8.99165879 10.16878482 -6.00958226 10.12038329 -3 10 C-2.49596232 8.70990357 -1.99690074 7.41786211 -1.5 6.125 C-1.2215625 5.40570312 -0.943125 4.68640625 -0.65625 3.9453125 C0.10655018 2.02632539 0.10655018 2.02632539 0 0 Z " fill="#BA9676" transform="translate(289,642)"/>
<path d="M0 0 C5.94 0 11.88 0 18 0 C18 1.32 18 2.64 18 4 C14.04 4 10.08 4 6 4 C6 6.31 6 8.62 6 11 C9.63 11 13.26 11 17 11 C17 11.99 17 12.98 17 14 C13.37 14 9.74 14 6 14 C6 15.98 6 17.96 6 20 C9.96 20 13.92 20 18 20 C18 21.32 18 22.64 18 24 C12.06 24 6.12 24 0 24 C0 16.08 0 8.16 0 0 Z " fill="#B49071" transform="translate(715,636)"/>
<path d="M0 0 C3 2 3 2 5 5 C5.39956124 7.80730687 5.24224238 10.14153994 5 13 C4.34 13 3.68 13 3 13 C3 13.66 3 14.32 3 15 C2.34 15 1.68 15 1 15 C1 15.66 1 16.32 1 17 C-7.73282443 18.51145038 -7.73282443 18.51145038 -11.6875 15.875 C-13.72340927 12.96655818 -13.879019 10.50844891 -14 7 C-11.17578733 0.64552149 -6.77084784 -1.25142129 0 0 Z " fill="#FBF8F4" transform="translate(658,639)"/>
<path d="M0 0 C0.33 0 0.66 0 1 0 C1.00238835 0.63960757 1.00477671 1.27921515 1.00723743 1.93820477 C1.06638278 17.50387668 1.14192971 33.06936961 1.23571491 48.63486767 C1.28067363 56.16224454 1.32008807 63.68957409 1.34643555 71.21704102 C1.36941508 77.77826289 1.40281246 84.33933502 1.44870156 90.90043813 C1.47263459 94.37426779 1.49136276 97.84794914 1.49761391 101.32185936 C1.50478889 105.20065955 1.53522327 109.07908812 1.56762695 112.95776367 C1.56619186 114.10862961 1.56475677 115.25949554 1.5632782 116.44523621 C1.57581635 117.50387878 1.58835449 118.56252136 1.60127258 119.65324402 C1.60588155 120.57042804 1.61049051 121.48761206 1.61523914 122.43258953 C2.08256449 125.55093166 3.17069374 127.45244296 5 130 C5.66 130.33 6.32 130.66 7 131 C7 131.66 7 132.32 7 133 C5.68 132.67 4.36 132.34 3 132 C3 131.34 3 130.68 3 130 C2.34 130 1.68 130 1 130 C-0.94043415 126.72798649 -1.2629623 124.2496279 -1.30297852 120.46875 C-1.31962051 119.36080078 -1.33626251 118.25285156 -1.35340881 117.11132812 C-1.36182297 115.91958984 -1.37023712 114.72785156 -1.37890625 113.5 C-1.39590073 112.27216797 -1.4128952 111.04433594 -1.43040466 109.77929688 C-1.48356711 105.85291697 -1.52383964 101.9265474 -1.5625 98 C-1.60644253 94.0735072 -1.65317364 90.14709592 -1.70530701 86.22070312 C-1.73722948 83.77675487 -1.76413028 81.33273486 -1.78553772 78.88867188 C-1.79902756 77.78072266 -1.8125174 76.67277344 -1.82641602 75.53125 C-1.83592789 74.55736328 -1.84543976 73.58347656 -1.85523987 72.58007812 C-1.98647761 70.24101119 -2.33783331 68.23943174 -3 66 C-2.67 66 -2.34 66 -2 66 C-1.98969254 65.30588516 -1.97938507 64.61177032 -1.96876526 63.8966217 C-1.87035538 57.32123549 -1.76778364 50.74592848 -1.66066074 44.17067814 C-1.6057454 40.79114294 -1.55237975 37.41159875 -1.50268555 34.03198242 C-1.44461764 30.1371316 -1.38102979 26.24240315 -1.31640625 22.34765625 C-1.29969376 21.1473024 -1.28298126 19.94694855 -1.26576233 18.71022034 C-1.15549243 12.40479183 -0.81929513 6.25405002 0 0 Z " fill="#E2C8AE" transform="translate(477,480)"/>
<path d="M0 0 C0.66 0 1.32 0 2 0 C2 8.91 2 17.82 2 27 C-9.88 27 -21.76 27 -34 27 C-34.33 26.34 -34.66 25.68 -35 25 C-34.42556152 24.9498877 -33.85112305 24.89977539 -33.25927734 24.84814453 C-30.63046114 24.61455437 -28.00278849 24.36987042 -25.375 24.125 C-24.47136719 24.04636719 -23.56773437 23.96773437 -22.63671875 23.88671875 C-17.82150097 23.42980027 -13.53978154 22.79479735 -9 21 C-9 20.34 -9 19.68 -9 19 C-8.401875 18.443125 -7.80375 17.88625 -7.1875 17.3125 C-2.66361113 12.53010319 -1.42427243 6.24488681 0 0 Z " fill="#DFC8AE" transform="translate(609,589)"/>
<path d="M0 0 C7.92 0 15.84 0 24 0 C24 1.65 24 3.3 24 5 C21.03 5 18.06 5 15 5 C15 11.27 15 17.54 15 24 C13.02 24 11.04 24 9 24 C9 17.73 9 11.46 9 5 C6.03 5 3.06 5 0 5 C0 3.35 0 1.7 0 0 Z " fill="#B58E6D" transform="translate(587,636)"/>
<path d="M0 0 C3 1 3 1 5 3 C5.7924492 7.91318502 5.72520541 9.85370758 3.0625 14.0625 C-0.6924887 16.4381051 -2.69374478 16.41276093 -6.97265625 15.63671875 C-9 15 -9 15 -11.0625 13.375 C-12.38696244 10.01969514 -12.44672088 7.57376708 -12 4 C-9.0926507 -0.72444261 -5.12242389 -0.80132968 0 0 Z " fill="#FBF8F4" transform="translate(530,640)"/>
<path d="M0 0 C28.68525345 -0.11350252 57.33231688 -0.09487545 86 1 C74.33809621 8.77460253 58.01586403 3 44 3 C44 29.73 44 56.46 44 84 C43.67 84 43.34 84 43 84 C43 56.61 43 29.22 43 1 C21.13407367 -0.08944471 21.13407367 -0.08944471 0 3 C0 2.01 0 1.02 0 0 Z " fill="#D8C0A6" transform="translate(501,467)"/>
<path d="M0 0 C3.51855159 1.40742064 4.38612834 2.66466523 6 6 C6.99 6.33 7.98 6.66 9 7 C9.92039062 7.93779297 9.92039062 7.93779297 10.859375 8.89453125 C18.85716861 16.76097423 30.48510998 16.85321854 41 17 C41 17.33 41 17.66 41 18 C36.38 18 31.76 18 27 18 C27 18.66 27 19.32 27 20 C32.28 20 37.56 20 43 20 C43 20.33 43 20.66 43 21 C16.57296488 21.68783661 16.57296488 21.68783661 9 18 C8.67 17.01 8.34 16.02 8 15 C5.36 14.67 2.72 14.34 0 14 C0 13.67 0 13.34 0 13 C2.97 13.33 5.94 13.66 9 14 C8.34 13.67 7.68 13.34 7 13 C7 12.01 7 11.02 7 10 C6.34 10 5.68 10 5 10 C5 8.68 5 7.36 5 6 C4.01 6.33 3.02 6.66 2 7 C1.34 4.69 0.68 2.38 0 0 Z " fill="#C1A07E" transform="translate(783,602)"/>
<path d="M0 0 C0.66 0.33 1.32 0.66 2 1 C1.835 2.175625 1.67 3.35125 1.5 4.5625 C1.01271488 8.41273873 0.91922043 12.12258073 1 16 C1.99 16.33 2.98 16.66 4 17 C4 17.66 4 18.32 4 19 C5.27875 19.12375 6.5575 19.2475 7.875 19.375 C11.44692728 19.72067038 12.46059521 20.46059521 15 23 C17.32817964 23.36760731 19.6618385 23.70241581 22 24 C22 24.99 22 25.98 22 27 C17.38 27 12.76 27 8 27 C7.67 25.68 7.34 24.36 7 23 C6.113125 22.9175 5.22625 22.835 4.3125 22.75 C0.53454283 21.89461347 -1.24213977 20.67906423 -4 18 C-5.63186199 13.10441403 -5.83931781 8.75493725 -3.625 4.125 C-2 2 -2 2 0 0 Z " fill="#BB9C81" transform="translate(644,637)"/>
<path d="M0 0 C9.13979704 1.70155796 16.21259001 4.96027545 24 10 C23.34 10.66 22.68 11.32 22 12 C20.68 12 19.36 12 18 12 C17.67 11.01 17.34 10.02 17 9 C16.34 8.67 15.68 8.34 15 8 C15 7.34 15 6.68 15 6 C13.35 6 11.7 6 10 6 C9.3121764 8.35367713 9.3121764 8.35367713 9 11 C9.99 12.485 9.99 12.485 11 14 C10.67 14.99 10.34 15.98 10 17 C10.39397335 19.63804589 10.39397335 19.63804589 11 22 C7.73268033 18.96606031 5.4656192 15.69842881 3 12 C2.2575 11.278125 1.515 10.55625 0.75 9.8125 C-1 8 -1 8 -1 5 C-1.66 4.67 -2.32 4.34 -3 4 C-3 3.34 -3 2.68 -3 2 C-2.01 2 -1.02 2 0 2 C0 1.34 0 0.68 0 0 Z " fill="#D1AD8A" transform="translate(846,467)"/>
<path d="M0 0 C2.31 0 4.62 0 7 0 C7 7.92 7 15.84 7 24 C4.69 24 2.38 24 0 24 C0 16.08 0 8.16 0 0 Z " fill="#B79679" transform="translate(621,636)"/>
<path d="M0 0 C0.33 0 0.66 0 1 0 C1 33.33 1 66.66 1 101 C-1.8290723 98.1709277 -2.37611108 97.61855575 -3 94 C-3.66 94 -4.32 94 -5 94 C-5.0825 93.38125 -5.165 92.7625 -5.25 92.125 C-5.81258459 89.81562433 -5.81258459 89.81562433 -8.0625 88.75 C-9.0215625 88.37875 -9.0215625 88.37875 -10 88 C-9.505 87.01 -9.505 87.01 -9 86 C-7.68 86.66 -6.36 87.32 -5 88 C-5 88.66 -5 89.32 -5 90 C-3.68 90 -2.36 90 -1 90 C-1 63.27 -1 36.54 -1 9 C-1.99 9.495 -1.99 9.495 -3 10 C-2.69201674 8.51988629 -2.378482 7.04092675 -2.0625 5.5625 C-1.88847656 4.73878906 -1.71445312 3.91507813 -1.53515625 3.06640625 C-1 1 -1 1 0 0 Z " fill="#D3BBA2" transform="translate(414,578)"/>
<path d="M0 0 C0.33 0.66 0.66 1.32 1 2 C0.34 2 -0.32 2 -1 2 C-0.67 6.62 -0.34 11.24 0 16 C0.66 16 1.32 16 2 16 C2.33 14.68 2.66 13.36 3 12 C3.60714844 12.71349609 3.60714844 12.71349609 4.2265625 13.44140625 C6.89017039 15.78233036 9.32471162 15.84497867 12.76953125 16.1484375 C16.10595271 15.92639894 17.769762 14.37412432 20 12 C20.33 13.32 20.66 14.64 21 16 C22.32 15.67 23.64 15.34 25 15 C25 15.66 25 16.32 25 17 C23.68 17.33 22.36 17.66 21 18 C21 18.66 21 19.32 21 20 C15.414708 22.020212 10.81176767 22.47146759 5 21 C1.19198074 18.95495262 -1.996166 16.89634388 -4 13 C-4.41007113 8.48921755 -4.13237603 5.02782139 -2 1 C-1.34 0.67 -0.68 0.34 0 0 Z " fill="#B69677" transform="translate(515,639)"/>
<path d="M0 0 C2.16346245 1.71873255 2.9367011 2.59391842 3.36914349 5.36816692 C3.36637811 6.30931756 3.36361273 7.2504682 3.36076355 8.22013855 C3.36488754 9.30127426 3.36901154 10.38240997 3.3732605 11.49630737 C3.36247467 12.68241608 3.35168884 13.86852478 3.34057617 15.09057617 C3.34101425 16.33947128 3.34145233 17.58836639 3.34190369 18.87510681 C3.3401703 22.3006519 3.32511318 25.72565628 3.30418181 29.15110564 C3.28544275 32.7305478 3.28366677 36.30999696 3.28010559 39.88948059 C3.27077695 46.66806643 3.24615218 53.44650731 3.21605712 60.22502929 C3.18253852 67.94198115 3.16603351 75.65893989 3.15097082 83.3759464 C3.11960326 99.25071492 3.06682696 115.12533877 3 131 C2.67 131 2.34 131 2 131 C1.99576806 130.37346527 1.99153612 129.74693054 1.98717594 129.10140991 C1.88373544 113.83518865 1.77507807 98.56901412 1.66066074 83.3028717 C1.60545368 75.92019178 1.55199275 68.53750703 1.50268555 61.15478516 C1.45968984 54.71774852 1.413374 48.28074566 1.36312145 41.84376144 C1.33664389 38.43749835 1.31179492 35.03124142 1.29092598 31.62493896 C1.26675643 27.81631841 1.23671923 24.00778564 1.20532227 20.19921875 C1.1995668 19.07784012 1.19381134 17.95646149 1.18788147 16.80110168 C1.13463923 11.11215174 0.84680444 5.62757472 0 0 Z " fill="#FDF3E7" transform="translate(511,474)"/>
<path d="M0 0 C18.81 0 37.62 0 57 0 C57 0.99 57 1.98 57 3 C55.9275 3.28875 54.855 3.5775 53.75 3.875 C49.68670746 5.05629619 49.68670746 5.05629619 46 7 C45.67 7.99 45.34 8.98 45 10 C44.505 8.515 44.505 8.515 44 7 C45.28965176 5.62437146 46.62689293 4.29233607 48 3 C48.66 3 49.32 3 50 3 C50 2.34 50 1.68 50 1 C36.8 1.33 23.6 1.66 10 2 C10.66 3.32 11.32 4.64 12 6 C11.67 6.99 11.34 7.98 11 9 C9.948125 8.071875 9.948125 8.071875 8.875 7.125 C5.94222819 4.9572991 3.48817594 3.97344445 0 3 C0 2.01 0 1.02 0 0 Z " fill="#E4D5C0" transform="translate(620,467)"/>
<path d="M0 0 C0.66 0 1.32 0 2 0 C2 33 2 66 2 100 C-1.31012244 96.68987756 -1.50351065 95.46840411 -2 91 C-1.34 91 -0.68 91 0 91 C0.0231363 80.47345762 0.04092168 69.94692125 0.05181217 59.42035866 C0.05703817 54.53283416 0.06413071 49.64532701 0.07543945 44.7578125 C0.08627835 40.04403894 0.09227897 35.3302821 0.09487724 30.61649704 C0.09672968 28.8151053 0.10034683 27.01371451 0.10573006 25.21232986 C0.11295376 22.69573209 0.11399037 20.17920407 0.11352539 17.66259766 C0.11712067 16.91237839 0.12071594 16.16215912 0.12442017 15.38920593 C0.18424105 11.5681684 0.18424105 11.5681684 -1 8 C-1.66 8 -2.32 8 -3 8 C-1.125 2.25 -1.125 2.25 0 0 Z " fill="#C0A88F" transform="translate(413,406)"/>
<path d="M0 0 C0.99 0.66 1.98 1.32 3 2 C3.34142515 5.24353892 2.78154057 7.87383773 2 11 C2.33 11.33 2.66 11.66 3 12 C3.04080783 13.99958364 3.04254356 16.00045254 3 18 C2.34 18.33 1.68 18.66 1 19 C-0.13357275 15.67485327 -1.1469752 12.4120992 -2 9 C-6.29 8.67 -10.58 8.34 -15 8 C-15 6.35 -15 4.7 -15 3 C-11.04 3 -7.08 3 -3 3 C-3 2.34 -3 1.68 -3 1 C-2.01 0.67 -1.02 0.34 0 0 Z " fill="#BA9A7A" transform="translate(499,638)"/>
<path d="M0 0 C0.33 0 0.66 0 1 0 C1 5.61 1 11.22 1 17 C-8.75222876 18.62537146 -18.20580797 18.07967471 -28 17 C-28 16.67 -28 16.34 -28 16 C-26.83082031 15.91363281 -25.66164063 15.82726562 -24.45703125 15.73828125 C-22.90874699 15.59752814 -21.36057507 15.45553555 -19.8125 15.3125 C-18.65911133 15.23225586 -18.65911133 15.23225586 -17.48242188 15.15039062 C-12.01170022 14.61036231 -9.66166256 13.34051011 -6 9 C-5.278125 8.71125 -4.55625 8.4225 -3.8125 8.125 C-1.57291763 6.99909466 -1.57291763 6.99909466 -0.75 3.375 C-0.5025 2.26125 -0.255 1.1475 0 0 Z " fill="#D6AE88" transform="translate(732,598)"/>
<path d="M0 0 C0.66 0.33 1.32 0.66 2 1 C1.67 2.65 1.34 4.3 1 6 C0.34 6 -0.32 6 -1 6 C-0.67 7.98 -0.34 9.96 0 12 C-0.5775 12.185625 -1.155 12.37125 -1.75 12.5625 C-5.06936811 14.6832074 -6.66997818 17.38259765 -8 21 C-8.41202085 23.79614148 -8.62138149 26.52785681 -8.7265625 29.3515625 C-9.02504872 32.24261472 -9.71344764 34.39952182 -11 37 C-11.99 37.495 -11.99 37.495 -13 38 C-13.46523063 39.89533342 -13.46523063 39.89533342 -13.625 42.0625 C-13.810625 44.0115625 -13.810625 44.0115625 -14 46 C-14.33 46 -14.66 46 -15 46 C-15.23119858 39.52643978 -14.5953254 34.19115687 -12.75 28 C-12.52546143 27.21834473 -12.30092285 26.43668945 -12.06958008 25.63134766 C-10.46518781 20.19036519 -8.54089486 15.08178972 -6 10 C-5.34 10 -4.68 10 -4 10 C-3.566875 8.3603125 -3.566875 8.3603125 -3.125 6.6875 C-2 3 -2 3 0 0 Z " fill="#DDC2A4" transform="translate(750,491)"/>
<path d="M0 0 C0.99 0 1.98 0 3 0 C3 8.91 3 17.82 3 27 C0.36 27 -2.28 27 -5 27 C-5 26.67 -5 26.34 -5 26 C-3.02 26 -1.04 26 1 26 C0.67 22.04 0.34 18.08 0 14 C-0.99 15.32 -1.98 16.64 -3 18 C-3.99 18.33 -4.98 18.66 -6 19 C-6.763125 19.845625 -7.52625 20.69125 -8.3125 21.5625 C-11 24 -11 24 -14.3125 24.3125 C-15.199375 24.209375 -16.08625 24.10625 -17 24 C-14 22 -14 22 -11.51171875 21.14453125 C-8.49990011 19.77211622 -7.55511702 18.46727782 -5.8125 15.6875 C-5.32394531 14.92824219 -4.83539062 14.16898438 -4.33203125 13.38671875 C-1.88462601 9.00148531 -0.69324555 4.96825978 0 0 Z " fill="#D8C0A8" transform="translate(732,589)"/>
<path d="M0 0 C-3 2 -3 2 -5.8125 2.875 C-9.36398719 4.12846607 -12.01643675 5.71028867 -15 8 C-15.33 8.99 -15.66 9.98 -16 11 C-17.9812585 11.72045764 -19.98504093 12.38001259 -22 13 C-25.5093776 14.70969678 -27.84661187 16.82260951 -30.5 19.625 C-33.18875778 22.41966071 -34.95803425 23.87751619 -39 24 C-38.67 23.34 -38.34 22.68 -38 22 C-37.34 22 -36.68 22 -36 22 C-35.73960937 21.40703125 -35.47921875 20.8140625 -35.2109375 20.203125 C-29.71416459 10.20254461 -15.5663462 3.13728257 -5.27734375 -0.50390625 C-3 -1 -3 -1 0 0 Z " fill="#DBC1A5" transform="translate(791,466)"/>
<path d="M0 0 C13.2 0 26.4 0 40 0 C40 0.33 40 0.66 40 1 C30.1 1.33 20.2 1.66 10 2 C10 2.66 10 3.32 10 4 C10.99 4.33 11.98 4.66 13 5 C13.33 7.64 13.66 10.28 14 13 C13.01 13.495 13.01 13.495 12 14 C11.505 12.783125 11.01 11.56625 10.5 10.3125 C8.38048716 5.98132159 5.78897226 4.16012193 1.609375 1.91015625 C1.07828125 1.60980469 0.5471875 1.30945313 0 1 C0 0.67 0 0.34 0 0 Z " fill="#CFB294" transform="translate(503,468)"/>
<path d="M0 0 C0.33 0 0.66 0 1 0 C1 2.31 1 4.62 1 7 C2.32 6.67 3.64 6.34 5 6 C5 6.99 5 7.98 5 9 C4.34 9 3.68 9 3 9 C2.71125 9.639375 2.4225 10.27875 2.125 10.9375 C1 13 1 13 -1 14 C0.65 14.33 2.3 14.66 4 15 C4 16.65 4 18.3 4 20 C-0.29 20 -4.58 20 -9 20 C-9 19.67 -9 19.34 -9 19 C-5.04 19 -1.08 19 3 19 C3 18.01 3 17.02 3 16 C-0.3 16 -3.6 16 -7 16 C-7 14.35 -7 12.7 -7 11 C-6.01 11 -5.02 11 -4 11 C-4 10.34 -4 9.68 -4 9 C-3.34 9 -2.68 9 -2 9 C-2 8.34 -2 7.68 -2 7 C-1.34 7 -0.68 7 0 7 C0 4.69 0 2.38 0 0 Z " fill="#BFA488" transform="translate(663,645)"/>
<path d="M0 0 C7.7498635 0.52541447 14.6450086 2.55591476 22 5 C22 5.33 22 5.66 22 6 C18.05272412 6.17942163 15.4019487 6.09350689 12 4 C11.67 6.31 11.34 8.62 11 11 C6.79766566 8.58047417 2.92072351 5.84444647 -1 3 C-0.67 2.01 -0.34 1.02 0 0 Z " fill="#D6B494" transform="translate(834,463)"/>
<path d="M0 0 C0.33 0 0.66 0 1 0 C1 7.92 1 15.84 1 24 C0.67 23.34 0.34 22.68 0 22 C-0.99 21.67 -1.98 21.34 -3 21 C-4.35652339 18.48738173 -5.54887263 16.04517061 -6.6875 13.4375 C-7.00783203 12.72658203 -7.32816406 12.01566406 -7.65820312 11.28320312 C-8.44820496 9.52633338 -9.22533623 7.76368655 -10 6 C-7 7 -7 7 -5.3125 10.0625 C-4.879375 11.031875 -4.44625 12.00125 -4 13 C-1.47519307 10.47519307 -1.44261367 8.86176966 -0.875 5.375 C-0.70742188 4.37210937 -0.53984375 3.36921875 -0.3671875 2.3359375 C-0.24601562 1.56507813 -0.12484375 0.79421875 0 0 Z " fill="#C5A07E" transform="translate(413,475)"/>
<path d="M0 0 C1.155 0.144375 2.31 0.28875 3.5 0.4375 C10.64366009 1.24015844 17.82552158 1.58625707 25 2 C25 2.33 25 2.66 25 3 C20.38 3 15.76 3 11 3 C11 3.66 11 4.32 11 5 C16.28 5 21.56 5 27 5 C27 5.33 27 5.66 27 6 C23.41668375 6.02907084 19.83339792 6.04682263 16.25 6.0625 C15.23421875 6.07087891 14.2184375 6.07925781 13.171875 6.08789062 C12.1921875 6.09111328 11.2125 6.09433594 10.203125 6.09765625 C8.85202637 6.10551147 8.85202637 6.10551147 7.47363281 6.11352539 C5.16610196 6.00762312 3.20865595 5.65132813 1 5 C1 4.34 1 3.68 1 3 C0.34 2.67 -0.32 2.34 -1 2 C-0.67 1.34 -0.34 0.68 0 0 Z " fill="#CAB19A" transform="translate(799,617)"/>
<path d="M0 0 C0.99 0 1.98 0 3 0 C3 11.22 3 22.44 3 34 C1.68 34 0.36 34 -1 34 C-0.67 33.34 -0.34 32.68 0 32 C0.66 32.33 1.32 32.66 2 33 C1.34 23.76 0.68 14.52 0 5 C-0.66 6.65 -1.32 8.3 -2 10 C-2.99 10 -3.98 10 -5 10 C-3.35 6.7 -1.7 3.4 0 0 Z " fill="#EAD8C3" transform="translate(593,536)"/>
<path d="M0 0 C0.66 0 1.32 0 2 0 C2.33333333 1.33333333 2.66666667 2.66666667 3 4 C3.3403125 5.051875 3.3403125 5.051875 3.6875 6.125 C3.790625 6.74375 3.89375 7.3625 4 8 C2 10 2 10 -1.6953125 10.1953125 C-3.17200108 10.182009 -4.64862358 10.15814835 -6.125 10.125 C-6.87910156 10.11597656 -7.63320313 10.10695313 -8.41015625 10.09765625 C-10.27357254 10.0740687 -12.13682593 10.03819719 -14 10 C-14 9.34 -14 8.68 -14 8 C-12.5422647 7.664061 -11.08378894 7.33133376 -9.625 7 C-8.40683594 6.7215625 -8.40683594 6.7215625 -7.1640625 6.4375 C-5 6 -5 6 -3 6 C-2.690625 5.38125 -2.38125 4.7625 -2.0625 4.125 C-1.375 2.75 -0.6875 1.375 0 0 Z " fill="#E2C29E" transform="translate(606,605)"/>
<path d="M0 0 C0.82918945 -0.00386719 1.65837891 -0.00773437 2.51269531 -0.01171875 C3.38506836 -0.00269531 4.25744141 0.00632812 5.15625 0.015625 C6.49187988 0.02142578 6.49187988 0.02142578 7.85449219 0.02734375 C14.62676919 0.11577392 21.03849213 0.75914353 27.65625 2.265625 C27.65625 2.925625 27.65625 3.585625 27.65625 4.265625 C25.01625 5.255625 22.37625 6.245625 19.65625 7.265625 C19.98625 5.945625 20.31625 4.625625 20.65625 3.265625 C11.08625 2.935625 1.51625 2.605625 -8.34375 2.265625 C-4.74986774 0.46868387 -3.71225183 0.01130799 0 0 Z " fill="#BDA087" transform="translate(284.34375,429.734375)"/>
<path d="M0 0 C0.33 0 0.66 0 1 0 C1.06058594 1.04800781 1.12117187 2.09601562 1.18359375 3.17578125 C1.26801738 4.55470048 1.35266447 5.93360605 1.4375 7.3125 C1.47681641 8.00279297 1.51613281 8.69308594 1.55664062 9.40429688 C1.74927415 12.47161535 2.02322717 15.06968152 3 18 C5.31 18.33 7.62 18.66 10 19 C9.83951172 17.19402344 9.83951172 17.19402344 9.67578125 15.3515625 C9.55387082 13.77610465 9.43282162 12.20057999 9.3125 10.625 C9.23966797 9.8309375 9.16683594 9.036875 9.09179688 8.21875 C8.92578125 5.9140625 8.92578125 5.9140625 9 2 C9.99 1.34 10.98 0.68 12 0 C12.08086376 2.93804996 12.1404283 5.87388075 12.1875 8.8125 C12.21263672 9.64587891 12.23777344 10.47925781 12.26367188 11.33789062 C12.27817383 12.54155273 12.27817383 12.54155273 12.29296875 13.76953125 C12.31653442 14.87711792 12.31653442 14.87711792 12.34057617 16.00708008 C11.90061393 18.58156881 11.0645382 19.44276386 9 21 C3.85297237 21.64337845 3.85297237 21.64337845 1.33081055 19.7409668 C-0.32512424 17.57467236 -0.35043511 16.47045037 -0.29296875 13.76953125 C-0.28330078 12.96708984 -0.27363281 12.16464844 -0.26367188 11.33789062 C-0.23853516 10.50451172 -0.21339844 9.67113281 -0.1875 8.8125 C-0.17396484 7.96751953 -0.16042969 7.12253906 -0.14648438 6.25195312 C-0.11115799 4.16769616 -0.05735139 2.08376723 0 0 Z " fill="#F5EADC" transform="translate(559,636)"/>
<path d="M0 0 C0.33 0 0.66 0 1 0 C1.12117187 1.29035156 1.24234375 2.58070313 1.3671875 3.91015625 C1.53612008 5.62763747 1.70540987 7.34508358 1.875 9.0625 C1.95363281 9.91005859 2.03226563 10.75761719 2.11328125 11.63085938 C2.61649406 16.64363309 3.45114096 21.20374323 5 26 C4.01 26.33 3.02 26.66 2 27 C1.67 24.69 1.34 22.38 1 20 C-0.32 22.31 -1.64 24.62 -3 27 C-3.66 27 -4.32 27 -5 27 C-4.70351563 26.23429688 -4.40703125 25.46859375 -4.1015625 24.6796875 C-2.66407318 19.87786148 -2.03365729 15.08509262 -1.375 10.125 C-1.17390625 8.66320312 -1.17390625 8.66320312 -0.96875 7.171875 C-0.64071404 4.78189874 -0.31795261 2.39133497 0 0 Z " fill="#B89C81" transform="translate(817,509)"/>
<path d="M0 0 C0.66 0.33 1.32 0.66 2 1 C2 1.66 2 2.32 2 3 C3.49781006 2.99214478 3.49781006 2.99214478 5.02587891 2.98413086 C8.74950251 2.96595758 12.47312224 2.9545231 16.19677734 2.94506836 C17.80485698 2.94005625 19.4129321 2.93324481 21.02099609 2.92456055 C23.33952961 2.91235774 25.65800259 2.90674036 27.9765625 2.90234375 C28.68930328 2.89718246 29.40204407 2.89202118 30.13638306 2.88670349 C34.19856429 2.88625245 38.01488106 3.21224393 42 4 C42 4.33 42 4.66 42 5 C25.83 5 9.66 5 -7 5 C-7 4.34 -7 3.68 -7 3 C-4.69631264 1.93347808 -2.35981813 0.93578995 0 0 Z " fill="#D9BEA3" transform="translate(441,611)"/>
<path d="M0 0 C0.66 0.33 1.32 0.66 2 1 C1.01 2.98 0.02 4.96 -1 7 C-1.66 7 -2.32 7 -3 7 C-3.2475 8.093125 -3.495 9.18625 -3.75 10.3125 C-4.5995861 13.75939219 -5.72475496 17.0006696 -7 20.3125 C-9.05457772 25.78626304 -10.15146941 31.22775904 -11 37 C-11.33 37 -11.66 37 -12 37 C-12.26767098 30.70611474 -11.36400414 25.42770834 -9.6875 19.375 C-9.47416016 18.55515625 -9.26082031 17.7353125 -9.04101562 16.890625 C-7.80233585 12.29087086 -6.3159739 8.1972782 -4 4 C-3.34 4 -2.68 4 -2 4 C-2 3.34 -2 2.68 -2 2 C-1.34 2 -0.68 2 0 2 C0 1.34 0 0.68 0 0 Z " fill="#D9C0A5" transform="translate(780,483)"/>
<path d="M0 0 C0.99 0.33 1.98 0.66 3 1 C2.21496094 1.68964844 1.42992187 2.37929688 0.62109375 3.08984375 C-4.96385033 8.06204476 -10.11655075 12.92019441 -14.5 19.02734375 C-16.16660848 21.21910751 -18.01909058 23.09166701 -20 25 C-19.37240135 22.07120629 -18.41377341 19.63904371 -17 17 C-16.34 17 -15.68 17 -15 17 C-14.731875 16.443125 -14.46375 15.88625 -14.1875 15.3125 C-11.69678888 10.46216782 -9.1860542 6.58804645 -5 3 C-2.1875 2.1875 -2.1875 2.1875 0 2 C0 1.34 0 0.68 0 0 Z " fill="#B5977A" transform="translate(264,458)"/>
<path d="M0 0 C3.63 0 7.26 0 11 0 C11.33 1.65 11.66 3.3 12 5 C11 6 11 6 8.49609375 6.09765625 C6.98208984 6.08025391 6.98208984 6.08025391 5.4375 6.0625 C4.42558594 6.05347656 3.41367187 6.04445313 2.37109375 6.03515625 C1.58863281 6.02355469 0.80617188 6.01195312 0 6 C0 4.02 0 2.04 0 0 Z " fill="#F6E9DA" transform="translate(483,650)"/>
<path d="M0 0 C6.37120686 -0.4633605 11.59554303 0.36712851 17 4 C18.2578125 6.140625 18.2578125 6.140625 19 8 C17.68 8.33 16.36 8.66 15 9 C14.87625 8.360625 14.7525 7.72125 14.625 7.0625 C14.41875 6.381875 14.2125 5.70125 14 5 C13.34 4.67 12.68 4.34 12 4 C12.66 4.66 13.32 5.32 14 6 C14.1953125 8.3828125 14.1953125 8.3828125 14.125 11.125 C14.10695313 12.03507813 14.08890625 12.94515625 14.0703125 13.8828125 C14.04710937 14.58148437 14.02390625 15.28015625 14 16 C13.67 16 13.34 16 13 16 C13 13.36 13 10.72 13 8 C9.7 7.01 6.4 6.02 3 5 C3.99 4.01 4.98 3.02 6 2 C3.03 1.505 3.03 1.505 0 1 C0 0.67 0 0.34 0 0 Z " fill="#BB9E81" transform="translate(522,635)"/>
<path d="M0 0 C0.66 0 1.32 0 2 0 C2 0.66 2 1.32 2 2 C3.65 1.34 5.3 0.68 7 0 C8 1 9 2 10 3 C12.32817964 3.36760731 14.6618385 3.70241581 17 4 C17 4.99 17 5.98 17 7 C14.73078464 7.13489391 12.4592933 7.23193995 10.1875 7.3125 C8.29064453 7.39951172 8.29064453 7.39951172 6.35546875 7.48828125 C3 7 3 7 1.05078125 4.60546875 C0 2 0 2 0 0 Z " fill="#B3916F" transform="translate(649,657)"/>
<path d="M0 0 C2.875 0.3125 2.875 0.3125 6 1 C8.67927341 5.01891012 8.15601248 7.24161923 8 12 C6.35 12.33 4.7 12.66 3 13 C2.87625 11.96875 2.7525 10.9375 2.625 9.875 C2.06110186 6.37883154 1.21317941 3.31602373 0 0 Z " fill="#B49476" transform="translate(661,639)"/>
<path d="M0 0 C5.75 0.75 5.75 0.75 8 3 C7.625 5.125 7.625 5.125 7 7 C6.01 7 5.02 7 4 7 C4 7.66 4 8.32 4 9 C4.66 9.33 5.32 9.66 6 10 C6 10.66 6 11.32 6 12 C6.66 12 7.32 12 8 12 C8 12.66 8 13.32 8 14 C3.96479403 12.41037341 -0.01811282 10.71767682 -4 9 C-3.01 8.34 -2.02 7.68 -1 7 C0.72082924 5.27917076 1.77008306 3.08551134 3 1 C2.01 0.67 1.02 0.34 0 0 Z " fill="#BD9979" transform="translate(346,418)"/>
<path d="M0 0 C7.92 0 15.84 0 24 0 C24 1.65 24 3.3 24 5 C21.03 5 18.06 5 15 5 C15.33 4.34 15.66 3.68 16 3 C17.65 3 19.3 3 21 3 C21 2.34 21 1.68 21 1 C14.73 1 8.46 1 2 1 C2.33 1.66 2.66 2.32 3 3 C6.02934491 3.65772428 6.02934491 3.65772428 9 4 C9 4.33 9 4.66 9 5 C6.03 5 3.06 5 0 5 C0 3.35 0 1.7 0 0 Z " fill="#B59D85" transform="translate(587,636)"/>
<path d="M0 0 C6.27 0 12.54 0 19 0 C19 0.66 19 1.32 19 2 C17.00458132 2.68025637 15.00382009 3.34490497 13 4 C12.3709375 4.2165625 11.741875 4.433125 11.09375 4.65625 C8.4087168 5.09707635 6.78884608 4.4958993 4.25 3.5625 C3.45078125 3.27503906 2.6515625 2.98757813 1.828125 2.69140625 C1.22484375 2.46324219 0.6215625 2.23507812 0 2 C0 1.34 0 0.68 0 0 Z " fill="#B68F69" transform="translate(589,637)"/>
<path d="M0 0 C1.98 0 3.96 0 6 0 C5.96519531 0.59425781 5.93039062 1.18851562 5.89453125 1.80078125 C5.69842279 7.80543545 6.59725202 12.7037696 8.33203125 18.4375 C9.20059865 21.76954805 9.2279693 24.58046052 9 28 C8.67 28 8.34 28 8 28 C7.51080078 26.09927734 7.51080078 26.09927734 7.01171875 24.16015625 C6.57047424 22.46089549 6.12905883 20.76167911 5.6875 19.0625 C5.36749023 17.81629883 5.36749023 17.81629883 5.04101562 16.54492188 C3.58142271 10.94618486 1.90084068 5.46460716 0 0 Z " fill="#C5AC90" transform="translate(857,489)"/>
<path d="M0 0 C3.63 0 7.26 0 11 0 C11 0.66 11 1.32 11 2 C9.68 2.33 8.36 2.66 7 3 C7 3.66 7 4.32 7 5 C8.65 5 10.3 5 12 5 C12 5.33 12 5.66 12 6 C8.04 6 4.08 6 0 6 C0 4.02 0 2.04 0 0 Z " fill="#F5EBE1" transform="translate(721,650)"/>
<path d="M0 0 C5.94 0 11.88 0 18 0 C18 1.32 18 2.64 18 4 C16.68 4 15.36 4 14 4 C14 3.01 14 2.02 14 1 C12.3745692 1.14095064 10.74965949 1.28792087 9.125 1.4375 C8.22007812 1.51871094 7.31515625 1.59992187 6.3828125 1.68359375 C3.98889139 1.86989285 3.98889139 1.86989285 2 3 C1.67 9.93 1.34 16.86 1 24 C0.67 24 0.34 24 0 24 C0 16.08 0 8.16 0 0 Z " fill="#B99F87" transform="translate(715,636)"/>
<path d="M0 0 C3.3 0 6.6 0 10 0 C10.33 1.65 10.66 3.3 11 5 C7.37 5 3.74 5 0 5 C0 3.35 0 1.7 0 0 Z " fill="#FAF7F0" transform="translate(484,641)"/>
<path d="M0 0 C0.33 0.66 0.66 1.32 1 2 C0.34 2 -0.32 2 -1 2 C-0.67 6.62 -0.34 11.24 0 16 C0.66 16 1.32 16 2 16 C1.67 16.99 1.34 17.98 1 19 C-3.87706974 14.00100351 -3.87706974 14.00100351 -4.4375 9.4375 C-4.02904196 6.2281868 -3.5092419 3.85079025 -2 1 C-1.34 0.67 -0.68 0.34 0 0 Z M3 12 C3.99 12.99 4.98 13.98 6 15 C5.34 15.66 4.68 16.32 4 17 C3.34 16.67 2.68 16.34 2 16 C2.33 14.68 2.66 13.36 3 12 Z " fill="#BDA187" transform="translate(515,639)"/>
<path d="M0 0 C9.57 0 19.14 0 29 0 C29 0.33 29 0.66 29 1 C27.96359375 1.02578125 26.9271875 1.0515625 25.859375 1.078125 C24.48954199 1.13441951 23.11975195 1.19176655 21.75 1.25 C20.72712891 1.27126953 20.72712891 1.27126953 19.68359375 1.29296875 C16.12887794 1.46552777 14.29786441 1.7545897 11.515625 4.046875 C11.01546875 4.69140625 10.5153125 5.3359375 10 6 C10 5.01 10 4.02 10 3 C6.7 2.34 3.4 1.68 0 1 C0 0.67 0 0.34 0 0 Z " fill="#C2A383" transform="translate(435,468)"/>
<path d="M0 0 C0.33 0 0.66 0 1 0 C1.33 5.61 1.66 11.22 2 17 C2.66 16.67 3.32 16.34 4 16 C4.31241371 13.45058627 4.51303421 10.99638487 4.625 8.4375 C4.66367187 7.72658203 4.70234375 7.01566406 4.7421875 6.28320312 C4.83671783 4.52257575 4.91945817 2.76132272 5 1 C5.33 1 5.66 1 6 1 C6 6.94 6 12.88 6 19 C4.02 19 2.04 19 0 19 C0 12.73 0 6.46 0 0 Z " fill="#B69B82" transform="translate(596,641)"/>
<path d="M0 0 C0.33 0 0.66 0 1 0 C1.0093457 0.81678223 1.01869141 1.63356445 1.02832031 2.47509766 C1.08215507 6.19233506 1.16577994 9.908332 1.25 13.625 C1.26417969 14.91019531 1.27835937 16.19539062 1.29296875 17.51953125 C1.37478923 26.60616217 1.37478923 26.60616217 6 34 C6.66 34.33 7.32 34.66 8 35 C8 35.66 8 36.32 8 37 C6.68 36.67 5.36 36.34 4 36 C4 35.34 4 34.68 4 34 C3.34 34 2.68 34 2 34 C-0.29822325 30.35783305 -0.23128602 27.29174993 -0.1953125 23.046875 C-0.1924826 22.38665344 -0.18965271 21.72643188 -0.18673706 21.04620361 C-0.17558415 18.94728103 -0.15048946 16.84879258 -0.125 14.75 C-0.11496384 13.32292285 -0.1058391 11.89583898 -0.09765625 10.46875 C-0.07566111 6.97902672 -0.04116536 3.48955577 0 0 Z " fill="#DFC4AB" transform="translate(476,576)"/>
<path d="M0 0 C2.475 0.99 2.475 0.99 5 2 C5 2.66 5 3.32 5 4 C6.32 4 7.64 4 9 4 C9.66 4 10.32 4 11 4 C11 7.63 11 11.26 11 15 C8.1709277 12.1709277 7.62388892 11.61855575 7 8 C6.34 8 5.68 8 5 8 C4.87625 7.071875 4.87625 7.071875 4.75 6.125 C4.18741541 3.81562433 4.18741541 3.81562433 1.9375 2.75 C1.298125 2.5025 0.65875 2.255 0 2 C0 1.34 0 0.68 0 0 Z " fill="#D8C2AB" transform="translate(404,664)"/>
<path d="M0 0 C0.33 0 0.66 0 1 0 C0.8260891 8.17381208 -0.80313013 14.91369636 -5 22 C-5.66 22.33 -6.32 22.66 -7 23 C-6.46968491 18.75747927 -5.38175858 15.11481126 -3.83203125 11.16796875 C-2.42097498 7.49127283 -1.22168721 3.74304165 0 0 Z " fill="#BA9E81" transform="translate(863,571)"/>
<path d="M0 0 C0.96070434 2.88211302 1.10581883 4.69850044 1.0625 7.6875 C1.05347656 8.49574219 1.04445313 9.30398438 1.03515625 10.13671875 C1.02355469 10.75160156 1.01195312 11.36648438 1 12 C0.01 12 -0.98 12 -2 12 C-2.33 12.99 -2.66 13.98 -3 15 C-3.99 15.33 -4.98 15.66 -6 16 C-5.57024157 13.42144939 -5.14005508 11.27187163 -3.9375 8.9375 C-2.70962605 6.75862665 -2.70962605 6.75862665 -3 3 C-1.5 1.25 -1.5 1.25 0 0 Z " fill="#D2AD89" transform="translate(413,585)"/>
<path d="M0 0 C0.33 0 0.66 0 1 0 C1 11.22 1 22.44 1 34 C-2.31012244 30.68987756 -2.50351065 29.46840411 -3 25 C-2.34 25 -1.68 25 -1 25 C-0.67 16.75 -0.34 8.5 0 0 Z " fill="#C6AD96" transform="translate(414,472)"/>
<path d="M0 0 C0 0.99 0 1.98 0 3 C-0.639375 3.268125 -1.27875 3.53625 -1.9375 3.8125 C-4.33131686 4.88667752 -4.33131686 4.88667752 -5 8 C-2.525 8.99 -2.525 8.99 0 10 C-0.66 10.66 -1.32 11.32 -2 12 C-3.0725 11.525625 -4.145 11.05125 -5.25 10.5625 C-7.80839865 9.46233668 -10.25835017 8.54832997 -13 8 C-13 7.34 -13 6.68 -13 6 C-12.22914063 5.73445312 -11.45828125 5.46890625 -10.6640625 5.1953125 C-9.66117188 4.84210937 -8.65828125 4.48890625 -7.625 4.125 C-6.62726562 3.77695312 -5.62953125 3.42890625 -4.6015625 3.0703125 C-1.89557882 2.15217498 -1.89557882 2.15217498 0 0 Z " fill="#BBA187" transform="translate(811,536)"/>
<path d="M0 0 C2.5 1.625 2.5 1.625 4 3 C0.09469105 2.50144992 -3.67245225 1.86320194 -7.5 0.9375 C-13.84630978 -0.50386527 -19.60358192 -0.04431316 -26 1 C-18.46173207 -4.02551195 -8.27984754 -2.80923399 0 0 Z " fill="#F6E9DA" transform="translate(396,659)"/>
<path d="M0 0 C0 1.98 0 3.96 0 6 C2.64 6.33 5.28 6.66 8 7 C7.67 7.66 7.34 8.32 7 9 C3.04 9 -0.92 9 -5 9 C-4.38709677 3.48387097 -4.38709677 3.48387097 -2.5 1.125 C-1 0 -1 0 0 0 Z " fill="#B58E6E" transform="translate(483,650)"/>
<path d="M0 0 C-0.33 0.99 -0.66 1.98 -1 3 C-7.27 3 -13.54 3 -20 3 C-20 2.34 -20 1.68 -20 1 C-17.79187393 0.83060951 -15.58348776 0.66460778 -13.375 0.5 C-12.14523437 0.4071875 -10.91546875 0.314375 -9.6484375 0.21875 C-6.41962143 0.02515931 -3.23321325 -0.03979339 0 0 Z " fill="#B39476" transform="translate(830,619)"/>
<path d="M0 0 C0.99 0.33 1.98 0.66 3 1 C3.33 4.3 3.66 7.6 4 11 C2.68 11.33 1.36 11.66 0 12 C-1.12256131 9.75487738 -1.13413762 8.48543351 -1.125 6 C-1.12886719 4.948125 -1.12886719 4.948125 -1.1328125 3.875 C-1 2 -1 2 0 0 Z " fill="#B28F6D" transform="translate(640,642)"/>
<path d="M0 0 C-0.63808594 0.27714844 -1.27617187 0.55429687 -1.93359375 0.83984375 C-2.75988281 1.20207031 -3.58617187 1.56429687 -4.4375 1.9375 C-5.26121094 2.29714844 -6.08492188 2.65679688 -6.93359375 3.02734375 C-8.94410117 3.83122323 -8.94410117 3.83122323 -10 5 C-12.68862664 5.39993686 -15.36352217 5.75134543 -18.0625 6.0625 C-19.20041992 6.19881836 -19.20041992 6.19881836 -20.36132812 6.33789062 C-22.2404301 6.5624374 -24.12016095 6.78170978 -26 7 C-22.07633124 4.38422083 -18.03307348 3.2314647 -13.5625 1.8125 C-12.70333984 1.52697266 -11.84417969 1.24144531 -10.95898438 0.94726562 C-10.12818359 0.68236328 -9.29738281 0.41746094 -8.44140625 0.14453125 C-7.68545166 -0.09934326 -6.92949707 -0.34321777 -6.15063477 -0.59448242 C-3.76105635 -1.04505454 -2.28727015 -0.75896519 0 0 Z " fill="#F7ECDE" transform="translate(370,661)"/>
<path d="M0 0 C0.9796875 -0.01417969 1.959375 -0.02835938 2.96875 -0.04296875 C5.5 0.1875 5.5 0.1875 7.5 2.1875 C4.35388747 4.28490836 3.58811922 4.44078219 0 4.375 C-0.7734375 4.36855469 -1.546875 4.36210938 -2.34375 4.35546875 C-4.5 4.1875 -4.5 4.1875 -7.5 3.1875 C-7.5 2.5275 -7.5 1.8675 -7.5 1.1875 C-4.89820337 -0.11339831 -2.9030812 0.01909922 0 0 Z " fill="#B49275" transform="translate(566.5,655.8125)"/>
<path d="M0 0 C6.20970773 -0.33266291 10.28264895 0.54970669 16 3 C15.67 3.66 15.34 4.32 15 5 C13.68 4.67 12.36 4.34 11 4 C11.33 5.32 11.66 6.64 12 8 C11.46375 7.525625 10.9275 7.05125 10.375 6.5625 C7.57157164 4.71813924 5.30379742 4.37543153 2 4 C3.32 3.34 4.64 2.68 6 2 C3.03 1.505 3.03 1.505 0 1 C0 0.67 0 0.34 0 0 Z " fill="#BCA085" transform="translate(650,635)"/>
<path d="M0 0 C5.28 0 10.56 0 16 0 C16 0.33 16 0.66 16 1 C13.69 1 11.38 1 9 1 C9.350625 1.598125 9.70125 2.19625 10.0625 2.8125 C11 5 11 5 10 8 C8.824375 7.0409375 8.824375 7.0409375 7.625 6.0625 C5.20460719 4.01857687 5.20460719 4.01857687 3 3 C3 2.34 3 1.68 3 1 C2.01 0.67 1.02 0.34 0 0 Z " fill="#E0CBB1" transform="translate(621,468)"/>
<path d="M0 0 C0 0.33 0 0.66 0 1 C-1.03640625 1.03738281 -2.0728125 1.07476562 -3.140625 1.11328125 C-4.51045184 1.17895788 -5.88024191 1.24540464 -7.25 1.3125 C-8.27287109 1.34633789 -8.27287109 1.34633789 -9.31640625 1.38085938 C-13.58818867 1.60896426 -15.74702289 2.30788101 -19 5 C-21.359375 5.51171875 -21.359375 5.51171875 -23.75 5.6875 C-24.94882812 5.78611328 -24.94882812 5.78611328 -26.171875 5.88671875 C-26.77515625 5.92410156 -27.3784375 5.96148437 -28 6 C-26.29779326 2.59558652 -22.92699233 2.04935743 -19.4765625 0.8203125 C-13.05081438 -0.69587526 -6.55750865 -0.29619863 0 0 Z " fill="#F6E9DC" transform="translate(824,464)"/>
<path d="M0 0 C7.47394574 -0.37369729 13.82140651 0.95938459 21 3 C21 3.66 21 4.32 21 5 C13.76410027 4.39700836 7.00629124 2.8849413 0 1 C0 0.67 0 0.34 0 0 Z " fill="#BCA087" transform="translate(262,650)"/>
<path d="M0 0 C0.33 0 0.66 0 1 0 C1.05404449 2.75026417 1.09369306 5.49946203 1.125 8.25 C1.15013672 9.41595703 1.15013672 9.41595703 1.17578125 10.60546875 C1.23662606 17.72431144 1.23662606 17.72431144 -1 21 C-1.66 21 -2.32 21 -3 21 C-3 18.36 -3 15.72 -3 13 C-2.34 13 -1.68 13 -1 13 C-0.67 8.71 -0.34 4.42 0 0 Z " fill="#CBB097" transform="translate(577,636)"/>
<path d="M0 0 C1.98 0 3.96 0 6 0 C1.76646153 4.93912821 -3.12975632 7.32134512 -9 10 C-9 9.34 -9 8.68 -9 8 C-4.52941176 4 -4.52941176 4 -2 4 C-1.34 2.68 -0.68 1.36 0 0 Z " fill="#B5977B" transform="translate(866,604)"/>
<path d="M0 0 C3.58806317 3.38872633 6.45684799 6.76141332 9 11 C9 11.66 9 12.32 9 13 C8.34 13 7.68 13 7 13 C6.7525 12.38125 6.505 11.7625 6.25 11.125 C5.19497817 8.8321526 5.19497817 8.8321526 2.9375 8.1875 C2.298125 7.795625 1.65875 7.40375 1 7 C0.25 3.375 0.25 3.375 0 0 Z " fill="#C4A88E" transform="translate(880,488)"/>
<path d="M0 0 C1.88579937 3.21284338 3 5.24633583 3 9 C1.68 9 0.36 9 -1 9 C-1 7.02 -1 5.04 -1 3 C-2.32 3 -3.64 3 -5 3 C-5.33 2.01 -5.66 1.02 -6 0 C-3 -1 -3 -1 0 0 Z " fill="#B48F6A" transform="translate(497,647)"/>
<path d="M0 0 C0.66 1.32 1.32 2.64 2 4 C3.32 3.67 4.64 3.34 6 3 C6 3.66 6 4.32 6 5 C4.68 5.33 3.36 5.66 2 6 C2 6.66 2 7.32 2 8 C0.68 8.33 -0.64 8.66 -2 9 C-2.33 8.34 -2.66 7.68 -3 7 C-2.67 6.34 -2.34 5.68 -2 5 C-2.66 4.67 -3.32 4.34 -4 4 C-2.68 2.68 -1.36 1.36 0 0 Z " fill="#BA9D84" transform="translate(534,651)"/>
<path d="M0 0 C0 0.66 0 1.32 0 2 C2.31 2 4.62 2 7 2 C7 2.33 7 2.66 7 3 C-0.73708326 3.12152487 -8.307359 2.84800767 -16 2 C-16 1.67 -16 1.34 -16 1 C-10.65097076 0.40801257 -5.39115154 -0.14187241 0 0 Z " fill="#D1B394" transform="translate(720,613)"/>
<path d="M0 0 C0.99 0.33 1.98 0.66 3 1 C2.814375 1.845625 2.62875 2.69125 2.4375 3.5625 C1.96470368 7.2773282 2.33935369 10.32974273 3 14 C2.34 14 1.68 14 1 14 C-0.512545 8.83955235 -1.33500455 5.34001821 0 0 Z " fill="#B98E67" transform="translate(514,641)"/>
<path d="M0 0 C0 0.66 0 1.32 0 2 C-0.66 2 -1.32 2 -2 2 C-2.2475 2.61875 -2.495 3.2375 -2.75 3.875 C-4.2442984 6.41530728 -5.24781851 7.02864183 -8 8 C-9.32 8 -10.64 8 -12 8 C-12 7.34 -12 6.68 -12 6 C-10.02 5.34 -8.04 4.68 -6 4 C-6 3.34 -6 2.68 -6 2 C-2.25 0 -2.25 0 0 0 Z " fill="#FBF6E8" transform="translate(632,606)"/>
<path d="M0 0 C0.33 0.99 0.66 1.98 1 3 C-3.95 3 -8.9 3 -14 3 C-10.28767995 -0.71232005 -5.00320561 -0.11912394 0 0 Z " fill="#CBB49D" transform="translate(318,667)"/>
<path d="M0 0 C3.51855159 1.40742064 4.38612834 2.66466523 6 6 C6.99 6.33 7.98 6.66 9 7 C9.33 7.99 9.66 8.98 10 10 C7.525 9.01 7.525 9.01 5 8 C5 7.34 5 6.68 5 6 C4.01 6.33 3.02 6.66 2 7 C1.34 4.69 0.68 2.38 0 0 Z " fill="#C2A88A" transform="translate(783,602)"/>
<path d="M0 0 C3 1 3 1 4.1875 2.4375 C7.06984967 4.9222842 10.31012658 5.21363353 14 6 C14 6.66 14 7.32 14 8 C9.06836837 7.50683684 5.20336004 6.70216003 1 4 C0.125 1.8125 0.125 1.8125 0 0 Z " fill="#F2E5D7" transform="translate(822,534)"/>
<path d="M0 0 C-2.88147826 2.33994754 -5.60141636 3.79903432 -9.0625 5.125 C-9.91972656 5.45757813 -10.77695312 5.79015625 -11.66015625 6.1328125 C-13.42825866 6.78810254 -15.21113666 7.40371222 -17 8 C-17 7.34 -17 6.68 -17 6 C-15.05725842 5.02862921 -13.11414687 4.05822765 -11.16796875 3.09375 C-9.32181885 2.16235906 -7.50149474 1.18006316 -5.6875 0.1875 C-3 -1 -3 -1 0 0 Z " fill="#F9F1E5" transform="translate(358,651)"/>
<path d="M0 0 C0 0.66 0 1.32 0 2 C0.99 2.33 1.98 2.66 3 3 C0.69 3 -1.62 3 -4 3 C-4 8.61 -4 14.22 -4 20 C-4.33 20 -4.66 20 -5 20 C-5.08069658 17.04112541 -5.14034665 14.0844341 -5.1875 11.125 C-5.21263672 10.28324219 -5.23777344 9.44148437 -5.26367188 8.57421875 C-5.27333984 7.76855469 -5.28300781 6.96289062 -5.29296875 6.1328125 C-5.3086792 5.38918457 -5.32438965 4.64555664 -5.34057617 3.87939453 C-5.22818604 3.25919434 -5.1157959 2.63899414 -5 2 C-2 0 -2 0 0 0 Z " fill="#FCF8ED" transform="translate(556,633)"/>
<path d="M0 0 C3.3 0 6.6 0 10 0 C10 0.99 10 1.98 10 3 C6.7 3 3.4 3 0 3 C0 2.01 0 1.02 0 0 Z " fill="#B1977D" transform="translate(722,647)"/>
<path d="M0 0 C1.98 0.99 1.98 0.99 4 2 C4 2.66 4 3.32 4 4 C4.66 4 5.32 4 6 4 C10 8.47058824 10 8.47058824 10 11 C10.99 11.33 11.98 11.66 13 12 C12.01 12.495 12.01 12.495 11 13 C6.34140775 9.4248013 3.2184241 5.92229568 0 1 C0 0.67 0 0.34 0 0 Z " fill="#F7EFE2" transform="translate(784,600)"/>
<path d="M0 0 C0.33 0 0.66 0 1 0 C1.33 4.95 1.66 9.9 2 15 C1.34 15 0.68 15 0 15 C-0.66 16.32 -1.32 17.64 -2 19 C-1.45118943 12.64780958 -0.83488387 6.32126362 0 0 Z " fill="#BAA793" transform="translate(817,509)"/>
<path d="M0 0 C5.94 1.485 5.94 1.485 12 3 C12.33 4.65 12.66 6.3 13 8 C8.27626146 6.37621488 4.05818166 3.89006982 0 1 C0 0.67 0 0.34 0 0 Z " fill="#B99D82" transform="translate(225,632)"/>
<path d="M0 0 C1.65 0 3.3 0 5 0 C5 0.66 5 1.32 5 2 C6.32 1.67 7.64 1.34 9 1 C9 1.66 9 2.32 9 3 C11.475 3.99 11.475 3.99 14 5 C10.46675783 6.26937991 8.66899682 5.7575638 5.3125 4.1875 C4.52488281 3.83042969 3.73726562 3.47335937 2.92578125 3.10546875 C1 2 1 2 0 0 Z " fill="#C4A386" transform="translate(768,608)"/>
<path d="M0 0 C0.99 0 1.98 0 3 0 C3 3.63 3 7.26 3 11 C2.01 10.34 1.02 9.68 0 9 C-0.29296875 6.8359375 -0.29296875 6.8359375 -0.1875 4.375 C-0.16042969 3.55773437 -0.13335938 2.74046875 -0.10546875 1.8984375 C-0.05326172 0.95871094 -0.05326172 0.95871094 0 0 Z " fill="#B68F6C" transform="translate(555,639)"/>
<path d="M0 0 C0.99 0 1.98 0 3 0 C1.33248852 3.94139078 -1.22710649 6.7892812 -4 10 C-4.66 9.67 -5.32 9.34 -6 9 C-6 8.34 -6 7.68 -6 7 C-5.34 7 -4.68 7 -4 7 C-4 6.34 -4 5.68 -4 5 C-3.34 5 -2.68 5 -2 5 C-1.34 3.35 -0.68 1.7 0 0 Z " fill="#F6F0E5" transform="translate(849,598)"/>
<path d="M0 0 C1.22589844 0.15275391 1.22589844 0.15275391 2.4765625 0.30859375 C3.41628906 0.43427734 3.41628906 0.43427734 4.375 0.5625 C0.93049263 2.85883824 -1.56312283 3.10266485 -5.625 3.5625 C-5.955 2.5725 -6.285 1.5825 -6.625 0.5625 C-4.10446405 -0.69776798 -2.7707902 -0.35624445 0 0 Z " fill="#D7B091" transform="translate(352.625,662.4375)"/>
<path d="M0 0 C0.33 0 0.66 0 1 0 C2.23076923 8.30769231 2.23076923 8.30769231 1 12 C0.34 11.67 -0.32 11.34 -1 11 C-2.36817102 4.95724466 -2.36817102 4.95724466 -1.0625 1.5625 C-0.711875 1.046875 -0.36125 0.53125 0 0 Z " fill="#F5EEE1" transform="translate(646,642)"/>
<path d="M0 0 C1.27450447 0.59638333 2.54446877 1.20247416 3.8125 1.8125 C4.52019531 2.14894531 5.22789062 2.48539062 5.95703125 2.83203125 C8.01129035 4.00645471 9.41616278 5.25628016 11 7 C8.75 7.75 8.75 7.75 6 8 C3.6875 6.1875 3.6875 6.1875 2 4 C2 3.34 2 2.68 2 2 C1.34 2 0.68 2 0 2 C0 1.34 0 0.68 0 0 Z " fill="#CBB092" transform="translate(859,471)"/>
<path d="M0 0 C2.64 0 5.28 0 8 0 C8.33 0.99 8.66 1.98 9 3 C6.03 3 3.06 3 0 3 C0 2.01 0 1.02 0 0 Z " fill="#B6947A" transform="translate(483,647)"/>
<path d="M0 0 C0.99 0 1.98 0 3 0 C2.67 5.28 2.34 10.56 2 16 C1.67 16 1.34 16 1 16 C0.67 10.72 0.34 5.44 0 0 Z " fill="#B39D87" transform="translate(816,560)"/>
<path d="M0 0 C1.65 0 3.3 0 5 0 C4.01 0.495 4.01 0.495 3 1 C3 2.32 3 3.64 3 5 C-0.3 4.34 -3.6 3.68 -7 3 C-7 2.67 -7 2.34 -7 2 C-4.69 2 -2.38 2 0 2 C0 1.34 0 0.68 0 0 Z " fill="#DAC2AB" transform="translate(831,462)"/>
<path d="M0 0 C-1.28913487 0.67154933 -2.58140204 1.33708859 -3.875 2 C-4.59429687 2.37125 -5.31359375 2.7425 -6.0546875 3.125 C-8 4 -8 4 -10 4 C-10 3.34 -10 2.68 -10 2 C-10.66 1.67 -11.32 1.34 -12 1 C-3.96428571 -1.27678571 -3.96428571 -1.27678571 0 0 Z " fill="#B5977C" transform="translate(292,443)"/>
<path d="M0 0 C2.64 0.33 5.28 0.66 8 1 C8 1.66 8 2.32 8 3 C5.36 3.99 2.72 4.98 0 6 C0.33 4.68 0.66 3.36 1 2 C0.67 1.34 0.34 0.68 0 0 Z " fill="#B69A7F" transform="translate(304,431)"/>
<path d="M0 0 C2.64 0.99 5.28 1.98 8 3 C8 3.66 8 4.32 8 5 C8.66 5 9.32 5 10 5 C10 5.66 10 6.32 10 7 C5.96479403 5.41037341 1.98188718 3.71767682 -2 2 C-1.34 1.34 -0.68 0.68 0 0 Z " fill="#C0A288" transform="translate(344,425)"/>
<path d="M0 0 C1.93719378 -0.05406122 3.87481921 -0.09282025 5.8125 -0.125 C6.89144531 -0.14820313 7.97039062 -0.17140625 9.08203125 -0.1953125 C12 0 12 0 15 2 C11.20431539 2.97798721 8.4994001 2.92653069 4.6875 2.0625 C3.80449219 1.86785156 2.92148437 1.67320312 2.01171875 1.47265625 C1.34785156 1.31667969 0.68398438 1.16070312 0 1 C0 0.67 0 0.34 0 0 Z " fill="#B59885" transform="translate(304,415)"/>
<path d="M0 0 C0.66 0 1.32 0 2 0 C4.29013653 3.4352048 4.17842973 4.985331 4 9 C3.01 9.495 3.01 9.495 2 10 C1.690625 9.05125 1.38125 8.1025 1.0625 7.125 C0.12605258 4.13919592 0.12605258 4.13919592 -1 2 C-0.67 1.34 -0.34 0.68 0 0 Z " fill="#BCA085" transform="translate(498,647)"/>
<path d="M0 0 C-2.25 2.5625 -2.25 2.5625 -5 5 C-7.3125 4.8125 -7.3125 4.8125 -9 4 C-8 1 -8 1 -5.625 -0.25 C-3 -1 -3 -1 0 0 Z " fill="#DBB892" transform="translate(801,465)"/>
<path d="M0 0 C0.49628906 0.27714844 0.99257813 0.55429687 1.50390625 0.83984375 C6.09318168 3.28687676 9.81559721 4.56796643 15 5 C15 5.33 15 5.66 15 6 C8.79029227 6.33266291 4.71735105 5.45029331 -1 3 C-0.67 2.01 -0.34 1.02 0 0 Z " fill="#FBF2E8" transform="translate(553,656)"/>
<path d="M0 0 C-0.33 0.99 -0.66 1.98 -1 3 C-4.5625 4.1875 -4.5625 4.1875 -8 5 C-8.66 4.34 -9.32 3.68 -10 3 C-6.27034861 0.96564469 -4.33094958 0 0 0 Z " fill="#D5B99E" transform="translate(354,654)"/>
<path d="M0 0 C0.99 0.33 1.98 0.66 3 1 C0.36 2.98 -2.28 4.96 -5 7 C-5.66 6.34 -6.32 5.68 -7 5 C-5.90554162 4.13342884 -4.79902219 3.28207276 -3.6875 2.4375 C-3.07261719 1.96183594 -2.45773437 1.48617187 -1.82421875 0.99609375 C-1.22222656 0.66738281 -0.62023437 0.33867188 0 0 Z " fill="#D3B89D" transform="translate(370,642)"/>
<path d="M0 0 C0 0.66 0 1.32 0 2 C2.31 2.33 4.62 2.66 7 3 C7 3.33 7 3.66 7 4 C3.7 4.33 0.4 4.66 -3 5 C-2.67 4.01 -2.34 3.02 -2 2 C-3.32 1.67 -4.64 1.34 -6 1 C-3 0 -3 0 0 0 Z " fill="#C4A78F" transform="translate(832,617)"/>
<path d="M0 0 C0 0.66 0 1.32 0 2 C0.99 2.66 1.98 3.32 3 4 C-0.63 4 -4.26 4 -8 4 C-8 3.34 -8 2.68 -8 2 C-2.25 0 -2.25 0 0 0 Z " fill="#DBC8B1" transform="translate(628,612)"/>
<path d="M0 0 C0 3.30941204 -0.40339294 5.11090151 -2 8 C-4.625 8.8125 -4.625 8.8125 -7 9 C-5.35329482 4.53037166 -4.0238267 2.68255113 0 0 Z " fill="#B68F6A" transform="translate(877,595)"/>
<path d="M0 0 C0.33 0.66 0.66 1.32 1 2 C-2.14754098 8.64480874 -2.14754098 8.64480874 -5.25 9.9375 C-5.8275 9.958125 -6.405 9.97875 -7 10 C-5.33248852 6.05860922 -2.77289351 3.2107188 0 0 Z " fill="#EFE2D7" transform="translate(255,469)"/>
<path d="M0 0 C1.32 0 2.64 0 4 0 C4.69965443 1.26418246 5.38434763 2.53665402 6.0625 3.8125 C6.63677734 4.87404297 6.63677734 4.87404297 7.22265625 5.95703125 C8 8 8 8 7 11 C6.66226563 10.45730469 6.32453125 9.91460937 5.9765625 9.35546875 C5.53054688 8.64003906 5.08453125 7.92460937 4.625 7.1875 C4.18414063 6.47980469 3.74328125 5.77210938 3.2890625 5.04296875 C2.21811524 3.34567961 1.11323761 1.66985642 0 0 Z " fill="#DEC9AF" transform="translate(600,474)"/>
<path d="M0 0 C0 3 0 3 -2 6 C-2.66 6.66 -3.32 7.32 -4 8 C-5.32 7.67 -6.64 7.34 -8 7 C-5.36 4.69 -2.72 2.38 0 0 Z " fill="#BC9D80" transform="translate(220,456)"/>
<path d="M0 0 C1.32 0 2.64 0 4 0 C4 0.66 4 1.32 4 2 C4.66 2 5.32 2 6 2 C6 2.99 6 3.98 6 5 C6.66 5 7.32 5 8 5 C8.33 6.32 8.66 7.64 9 9 C7.87105124 8.06725891 6.74699124 7.12859878 5.625 6.1875 C4.99851562 5.66542969 4.37203125 5.14335937 3.7265625 4.60546875 C2 3 2 3 0 0 Z " fill="#BBA086" transform="translate(378,449)"/>
<path d="M0 0 C6.625 0.75 6.625 0.75 10 3 C10 3.99 10 4.98 10 6 C6.66666667 4.33333333 3.33333333 2.66666667 0 1 C0 0.67 0 0.34 0 0 Z " fill="#D9C1A3" transform="translate(394,658)"/>
<path d="M0 0 C0.99 0.33 1.98 0.66 3 1 C2.2884375 1.99 2.2884375 1.99 1.5625 3 C-0.41317854 6.7933028 -0.64027463 9.75524068 -1 14 C-1.33 14 -1.66 14 -2 14 C-2.05389087 12.04196493 -2.09274217 10.08351091 -2.125 8.125 C-2.14820313 7.03445313 -2.17140625 5.94390625 -2.1953125 4.8203125 C-2 2 -2 2 0 0 Z " fill="#E8DBCA" transform="translate(640,638)"/>
<path d="M0 0 C0.66 1.32 1.32 2.64 2 4 C1.21625 4.61875 0.4325 5.2375 -0.375 5.875 C-2.96837647 7.89858661 -2.96837647 7.89858661 -5 10 C-5 6.60406522 -4.47834052 5.93380119 -2.5 3.3125 C-2.0359375 2.68988281 -1.571875 2.06726563 -1.09375 1.42578125 C-0.7328125 0.95527344 -0.371875 0.48476563 0 0 Z " fill="#F8EFE4" transform="translate(886,589)"/>
<path d="M0 0 C2.97246802 2.54782974 4.41535288 5.45340883 6 9 C6 9.66 6 10.32 6 11 C5.34 11 4.68 11 4 11 C4 10.01 4 9.02 4 8 C3.01 8 2.02 8 1 8 C0.67 5.36 0.34 2.72 0 0 Z " fill="#C4AD91" transform="translate(889,501)"/>
<path d="M0 0 C0.33 0.99 0.66 1.98 1 3 C-0.75 5.0625 -0.75 5.0625 -3 7 C-4.32 6.67 -5.64 6.34 -7 6 C-4.69 4.02 -2.38 2.04 0 0 Z " fill="#F8EFE4" transform="translate(265,460)"/>
<path d="M0 0 C2.475 0.99 2.475 0.99 5 2 C5 2.66 5 3.32 5 4 C5.99 4.33 6.98 4.66 8 5 C8 5.99 8 6.98 8 8 C7.01 8 6.02 8 5 8 C4.87625 7.071875 4.87625 7.071875 4.75 6.125 C4.18741541 3.81562433 4.18741541 3.81562433 1.9375 2.75 C1.298125 2.5025 0.65875 2.255 0 2 C0 1.34 0 0.68 0 0 Z " fill="#E1C9AE" transform="translate(404,664)"/>
<path d="M0 0 C2 3 2 3 2 6 C0.02 6.99 -1.96 7.98 -4 9 C-4.33 8.01 -4.66 7.02 -5 6 C-3.68 5.67 -2.36 5.34 -1 5 C-0.67 3.35 -0.34 1.7 0 0 Z " fill="#F3E9E0" transform="translate(541,651)"/>
<path d="M0 0 C0.33 0.66 0.66 1.32 1 2 C1.99 2.33 2.98 2.66 4 3 C3.34 3.66 2.68 4.32 2 5 C1.53709779 7.66242821 1.53709779 7.66242821 1.375 10.625 C1.30023437 11.62789062 1.22546875 12.63078125 1.1484375 13.6640625 C1.09945312 14.43492187 1.05046875 15.20578125 1 16 C0.67 16 0.34 16 0 16 C0 10.72 0 5.44 0 0 Z " fill="#FEFAF1" transform="translate(578,636)"/>
<path d="M0 0 C1.98 0 3.96 0 6 0 C5.67 1.98 5.34 3.96 5 6 C3.0625 5.25 3.0625 5.25 1 4 C0.25 1.875 0.25 1.875 0 0 Z " fill="#C9A686" transform="translate(857,489)"/>
<path d="M0 0 C2.96175123 0.61277612 4.38058783 1.25372522 7 3 C7.1875 5.625 7.1875 5.625 7 8 C4.35247996 5.42215154 2.05567935 3.08351902 0 0 Z " fill="#FAF1E4" transform="translate(879,486)"/>
<path d="M0 0 C2.24606427 1.77444972 2.95081002 2.58352485 3.29296875 5.48046875 C3.25816406 6.37378906 3.22335937 7.26710938 3.1875 8.1875 C3.16042969 9.08855469 3.13335938 9.98960937 3.10546875 10.91796875 C3.07066406 11.60503906 3.03585937 12.29210937 3 13 C2.67 13 2.34 13 2 13 C-0.28571429 4.57142857 -0.28571429 4.57142857 0 0 Z " fill="#F7ECDE" transform="translate(511,474)"/>
<path d="M0 0 C0 3.88182751 -0.99521992 5.91792914 -3.625 8.75 C-4.305625 9.36875 -4.305625 9.36875 -5 10 C-5.66 9.67 -6.32 9.34 -7 9 C-4.69 6.03 -2.38 3.06 0 0 Z " fill="#BFA58A" transform="translate(207,468)"/>
<path d="M0 0 C5.94 1.485 5.94 1.485 12 3 C12 3.33 12 3.66 12 4 C7.17639811 4.19294408 3.50353262 3.75747614 -1 2 C-0.67 1.34 -0.34 0.68 0 0 Z " fill="#BCA086" transform="translate(360,422)"/>
<path d="M0 0 C0.66 0 1.32 0 2 0 C2.24042276 4.08718695 1.42258812 7.17679443 0 11 C-0.33 11 -0.66 11 -1 11 C-1.02688151 9.35425434 -1.04634123 7.70838587 -1.0625 6.0625 C-1.07410156 5.14597656 -1.08570313 4.22945312 -1.09765625 3.28515625 C-1 1 -1 1 0 0 Z " fill="#B58F68" transform="translate(681,638)"/>
<path d="M0 0 C1 2 1 2 0.875 4 C0 6 0 6 -2.5625 7.25 C-3.366875 7.4975 -4.17125 7.745 -5 8 C-5 5 -5 5 -2.5 2.3125 C-1.675 1.549375 -0.85 0.78625 0 0 Z " fill="#D3B698" transform="translate(381,632)"/>
<path d="M0 0 C4.24822374 0.47202486 6.19989709 2.96655518 9 6 C8.67 6.66 8.34 7.32 8 8 C6.66372225 6.85760183 5.33104612 5.71098945 4 4.5625 C3.2575 3.92441406 2.515 3.28632812 1.75 2.62890625 C1.1725 2.09136719 0.595 1.55382812 0 1 C0 0.67 0 0.34 0 0 Z " fill="#BDA288" transform="translate(215,624)"/>
<path d="M0 0 C0.65234375 1.765625 0.65234375 1.765625 1 4 C0.00390625 5.921875 0.00390625 5.921875 -1.4375 7.75 C-1.91058594 8.36359375 -2.38367188 8.9771875 -2.87109375 9.609375 C-3.24363281 10.06828125 -3.61617187 10.5271875 -4 11 C-4.66 10.67 -5.32 10.34 -6 10 C-4.68 7.69 -3.36 5.38 -2 3 C-1.34 3 -0.68 3 0 3 C0 2.01 0 1.02 0 0 Z " fill="#FCF4EA" transform="translate(606,597)"/>
<path d="M0 0 C0.66 0.33 1.32 0.66 2 1 C1.1875 4.4375 1.1875 4.4375 0 8 C-0.99 8.33 -1.98 8.66 -3 9 C-1.125 2.25 -1.125 2.25 0 0 Z " fill="#BA9D82" transform="translate(238,490)"/>
<path d="M0 0 C0.33 0.66 0.66 1.32 1 2 C-0.125 4.5625 -0.125 4.5625 -2 7 C-4.6875 7.8125 -4.6875 7.8125 -7 8 C-6.67 7.34 -6.34 6.68 -6 6 C-5.34 6 -4.68 6 -4 6 C-3.71125 5.38125 -3.4225 4.7625 -3.125 4.125 C-2 2 -2 2 0 0 Z " fill="#DEC7B0" transform="translate(759,482)"/>
<path d="M0 0 C0.33 0.66 0.66 1.32 1 2 C-3.296875 6.00390625 -3.296875 6.00390625 -5 7 C-6.32 6.67 -7.64 6.34 -9 6 C-6.03 4.02 -3.06 2.04 0 0 Z " fill="#F2E7D8" transform="translate(281,448)"/>
<path d="M0 0 C0.33 0.66 0.66 1.32 1 2 C-2.3 2 -5.6 2 -9 2 C-8 0 -8 0 -6.1875 -0.6875 C-3.77015282 -1.03283531 -2.27643414 -0.86347502 0 0 Z " fill="#CCA884" transform="translate(326,667)"/>
<path d="M0 0 C1.98 0 3.96 0 6 0 C6 0.99 6 1.98 6 3 C3.69 3 1.38 3 -1 3 C-0.67 2.01 -0.34 1.02 0 0 Z " fill="#FCFCF8" transform="translate(486,651)"/>
<path d="M0 0 C0.33 0 0.66 0 1 0 C1 2.64 1 5.28 1 8 C0.34 8 -0.32 8 -1 8 C-1 8.66 -1 9.32 -1 10 C-1.66 10 -2.32 10 -3 10 C-2.67 8.02 -2.34 6.04 -2 4 C-1.34 4 -0.68 4 0 4 C0 2.68 0 1.36 0 0 Z " fill="#F9F1E6" transform="translate(662,644)"/>
<path d="M0 0 C-2 2 -2 2 -4.3828125 2.1953125 C-5.28773438 2.17210937 -6.19265625 2.14890625 -7.125 2.125 C-8.49011719 2.09792969 -8.49011719 2.09792969 -9.8828125 2.0703125 C-10.58148437 2.04710937 -11.28015625 2.02390625 -12 2 C-12 1.67 -12 1.34 -12 1 C-3.96428571 -1.27678571 -3.96428571 -1.27678571 0 0 Z " fill="#F7ECE0" transform="translate(846,620)"/>
<path d="M0 0 C2.97 0.495 2.97 0.495 6 1 C6 5 6 5 5 7 C3.29115995 5.37660195 1.62553283 3.70680947 0 2 C0 1.34 0 0.68 0 0 Z " fill="#B8987B" transform="translate(209,617)"/>
<path d="M0 0 C4.455 0.99 4.455 0.99 9 2 C9 2.66 9 3.32 9 4 C6.69 4.33 4.38 4.66 2 5 C2 4.01 2 3.02 2 2 C1.34 2 0.68 2 0 2 C0 1.34 0 0.68 0 0 Z " fill="#B59C87" transform="translate(828,540)"/>
<path d="M0 0 C5.94 1.485 5.94 1.485 12 3 C12 3.33 12 3.66 12 4 C7.55790643 4.10834375 3.38585329 3.70173653 -1 3 C-0.67 2.01 -0.34 1.02 0 0 Z " fill="#D2B89D" transform="translate(844,465)"/>
<path d="M0 0 C0.99 0 1.98 0 3 0 C3 2.31 3 4.62 3 7 C2.01 7.33 1.02 7.66 0 8 C0.2784375 7.13375 0.2784375 7.13375 0.5625 6.25 C1.04023546 3.79307475 0.75729364 2.35602466 0 0 Z " fill="#B88E6A" transform="translate(665,644)"/>
<path d="M0 0 C0.66 0.33 1.32 0.66 2 1 C0.625 3 0.625 3 -1 5 C-1.66 5 -2.32 5 -3 5 C-3 6.98 -3 8.96 -3 11 C-3.33 11 -3.66 11 -4 11 C-4.49230769 4.6 -4.49230769 4.6 -2 1.5625 C-1.34 1.046875 -0.68 0.53125 0 0 Z " fill="#EDE0D0" transform="translate(522,640)"/>
<path d="M0 0 C1.4540625 0.0309375 1.4540625 0.0309375 2.9375 0.0625 C2.9375 1.0525 2.9375 2.0425 2.9375 3.0625 C0.9575 3.3925 -1.0225 3.7225 -3.0625 4.0625 C-3.3925 3.0725 -3.7225 2.0825 -4.0625 1.0625 C-3.0625 0.0625 -3.0625 0.0625 0 0 Z " fill="#B2906E" transform="translate(526.0625,635.9375)"/>
<path d="M0 0 C0.625 1.8125 0.625 1.8125 1 4 C0.01 5.485 0.01 5.485 -1 7 C-2.32 6.67 -3.64 6.34 -5 6 C-3.35 4.02 -1.7 2.04 0 0 Z " fill="#D3B89D" transform="translate(388,624)"/>
<path d="M0 0 C0.66 0.33 1.32 0.66 2 1 C1.67 1.66 1.34 2.32 1 3 C0.01 3.33 -0.98 3.66 -2 4 C-3.66710346 5.49985609 -3.66710346 5.49985609 -5 7 C-5.99 6.34 -6.98 5.68 -8 5 C-6.71475739 4.13619741 -5.42157581 3.28419631 -4.125 2.4375 C-3.04605469 1.72400391 -3.04605469 1.72400391 -1.9453125 0.99609375 C-1.30335938 0.66738281 -0.66140625 0.33867188 0 0 Z " fill="#F3ECE1" transform="translate(868,607)"/>
<path d="M0 0 C0.433125 0.9590625 0.433125 0.9590625 0.875 1.9375 C1.82823451 4.15206079 1.82823451 4.15206079 4 5 C4 6.32 4 7.64 4 9 C3.01 8.67 2.02 8.34 1 8 C-0.6875 4.4375 -0.6875 4.4375 -2 1 C-1.34 0.67 -0.68 0.34 0 0 Z " fill="#E2CEB5" transform="translate(591,560)"/>
<path d="M0 0 C0.99 0.33 1.98 0.66 3 1 C3 3.64 3 6.28 3 9 C2.34 9 1.68 9 1 9 C0.67 6.03 0.34 3.06 0 0 Z " fill="#DAC8B0" transform="translate(608,485)"/>
<path d="M0 0 C1.32 0.33 2.64 0.66 4 1 C3.01 1.495 3.01 1.495 2 2 C1.67 2.99 1.34 3.98 1 5 C-0.65 5.33 -2.3 5.66 -4 6 C-4 5.34 -4 4.68 -4 4 C-3.34 4 -2.68 4 -2 4 C-2 3.34 -2 2.68 -2 2 C-1.34 2 -0.68 2 0 2 C0 1.34 0 0.68 0 0 Z " fill="#DDBB97" transform="translate(774,472)"/>
<path d="M0 0 C2.64 0 5.28 0 8 0 C5.23776722 2.76223278 2.79293383 2.57856291 -1 3 C-0.67 2.01 -0.34 1.02 0 0 Z " fill="#D1B499" transform="translate(358,660)"/>
<path d="M0 0 C0.99 0.99 1.98 1.98 3 3 C2.34 4.32 1.68 5.64 1 7 C0.01 5.68 -0.98 4.36 -2 3 C-1.34 2.01 -0.68 1.02 0 0 Z " fill="#BB9578" transform="translate(195,593)"/>
<path d="M0 0 C0.66 0.33 1.32 0.66 2 1 C0.7260411 3.03833424 -0.61061923 5.03852126 -2 7 C-2.66 7 -3.32 7 -4 7 C-2.92598892 4.08482708 -2.22189824 2.22189824 0 0 Z " fill="#F0E6D8" transform="translate(825,547)"/>
<path d="M0 0 C4.875 4.625 4.875 4.625 6 8 C5.01 7.67 4.02 7.34 3 7 C3 6.34 3 5.68 3 5 C2.34 5 1.68 5 1 5 C0.67 3.35 0.34 1.7 0 0 Z " fill="#FAEDDF" transform="translate(848,478)"/>
<path d="M0 0 C0.66 0 1.32 0 2 0 C1.34 3.3 0.68 6.6 0 10 C-0.33 10 -0.66 10 -1 10 C-1.02689216 8.52093108 -1.04634621 7.04172517 -1.0625 5.5625 C-1.07410156 4.73878906 -1.08570313 3.91507812 -1.09765625 3.06640625 C-1 1 -1 1 0 0 Z " fill="#CBAC90" transform="translate(477,474)"/>
<path d="M0 0 C2.25 0.25 2.25 0.25 4 1 C-1.75 6 -1.75 6 -4 6 C-4 4 -4 4 -2.25 1.8125 C-1.5075 1.214375 -0.765 0.61625 0 0 Z " fill="#FAF1E5" transform="translate(765,474)"/>
<path d="M0 0 C0.66 0.33 1.32 0.66 2 1 C1.67 1.66 1.34 2.32 1 3 C1.66 3.66 2.32 4.32 3 5 C1.35 5.33 -0.3 5.66 -2 6 C-1.67 5.01 -1.34 4.02 -1 3 C-1.66 2.67 -2.32 2.34 -3 2 C-2.01 1.34 -1.02 0.68 0 0 Z " fill="#BB9F86" transform="translate(696,654)"/>
<path d="M0 0 C0.33 0 0.66 0 1 0 C1 2.31 1 4.62 1 7 C-0.65 7 -2.3 7 -4 7 C-4 6.01 -4 5.02 -4 4 C-2.68 4.33 -1.36 4.66 0 5 C0 3.35 0 1.7 0 0 Z " fill="#AF9177" transform="translate(626,653)"/>
<path d="M0 0 C3.465 1.98 3.465 1.98 7 4 C4 5 4 5 0 5 C0 3.35 0 1.7 0 0 Z " fill="#B8997C" transform="translate(273,632)"/>
<path d="M0 0 C3.3 0.33 6.6 0.66 10 1 C10.33 1.99 10.66 2.98 11 4 C7.37 3.01 3.74 2.02 0 1 C0 0.67 0 0.34 0 0 Z " fill="#BEA58D" transform="translate(325,420)"/>
</svg>
